<svg width="465" height="108" viewBox="0 0 465 108" fill="none" xmlns="http://www.w3.org/2000/svg">
<path opacity="0.1" d="M449.5 0H117C119.9 3.4 121.5 7.8 121.5 12.4V95.7C121.5 100.3 119.9 104.6 117 108H449.5C457.8 108 464.5 101.3 464.5 93V15C464.5 6.7 457.8 0 449.5 0Z" fill="white"/>
<path d="M12.3 108C15.9 108 19.3 106.4 21.6 103.7L106 5.8C103.8 2.3 100 0 95.5 0C91.9 0 88.5 1.5 86.2 4.2L1.5 101.6C3.6 105.4 7.7 108 12.3 108Z" fill="url(#paint0_linear)"/>
<path d="M12.3 108C14.3 108 16.2 107.5 18 106.6V24.9L83.6 103.6C85.9 106.4 89.4 108 93.1 108H95.7C102.5 108 108 102.5 108 95.7V12.3C108 5.5 102.5 0 95.7 0C93.7 0 91.8 0.5 90.1 1.4V83.2L24.4 4.4C22.1 1.6 18.6 0 14.9 0H12.3C5.5 0 0 5.5 0 12.3V95.6C0 102.5 5.5 108 12.3 108Z" fill="white"/>
<path d="M186.107 71.584H159.539V53.5841H183.947C186.467 53.5841 187.835 52.2881 187.835 49.8401C187.835 47.3921 186.467 46.0961 183.947 46.0961H159.539V29.1762H185.387C187.907 29.1762 189.275 27.8802 189.275 25.5042C189.275 23.0562 187.907 21.7602 185.387 21.7602H154.787C152.339 21.7602 150.971 23.1282 150.971 25.5762V75.184C150.971 77.632 152.339 79 154.787 79H186.107C188.627 79 189.995 77.704 189.995 75.256C189.995 72.88 188.627 71.584 186.107 71.584Z" fill="white"/>
<path d="M228.101 73.24L216.797 57.8321L227.453 44.0801C229.109 41.9922 228.389 39.6882 226.229 38.3922C223.997 37.0962 222.341 37.9602 220.685 40.1202L211.541 52.3601L202.253 40.1202C200.669 37.9602 198.941 37.0962 196.853 38.3922C194.621 39.6882 193.901 41.9922 195.557 44.0801L206.285 57.8321L194.909 73.24C193.253 75.472 194.045 77.56 196.277 78.856C198.509 80.152 200.237 79.36 201.821 77.128L211.541 63.5921L221.117 77.128C222.701 79.288 224.429 80.224 226.733 78.856C228.965 77.56 229.757 75.4 228.101 73.24Z" fill="white"/>
<path d="M255.568 37.6002C249.952 37.6002 245.416 39.9042 242.608 43.8641V41.9201C242.464 39.2562 241.096 37.7442 238.72 37.7442C236.272 37.7442 234.904 39.2562 234.904 41.9922V90.088C234.904 92.7519 236.344 94.3359 239.008 94.3359C241.672 94.3359 243.112 92.7519 243.112 90.088V74.104C245.92 77.632 250.312 79.72 255.568 79.72C265.288 79.72 271.768 72.952 271.768 62.8001V54.5201C271.768 44.2961 265.288 37.6002 255.568 37.6002ZM263.56 61.9361C263.56 68.344 259.528 72.52 253.336 72.52C247.216 72.52 243.112 68.344 243.112 61.9361V55.3121C243.112 48.9761 247.216 44.8001 253.336 44.8001C259.528 44.8001 263.56 48.9761 263.56 55.3121V61.9361Z" fill="white"/>
<path d="M287.117 79.576C289.565 79.576 291.437 78.352 291.437 76.264C291.437 74.464 290.429 73.816 289.565 73.312C288.125 72.736 287.333 71.584 287.333 69.856V25.4322C287.333 22.7682 285.893 21.1842 283.229 21.1842C280.637 21.1842 279.125 22.7682 279.125 25.4322V71.008C279.125 76.12 282.365 79.576 287.117 79.576Z" fill="white"/>
<path d="M314.254 79.72C325.342 79.72 332.758 72.736 332.758 62.2241V55.0961C332.758 44.5841 325.342 37.6002 314.254 37.6002C303.238 37.6002 295.823 44.5841 295.823 55.0961V62.2241C295.823 72.736 303.238 79.72 314.254 79.72ZM314.254 72.52C308.134 72.52 304.03 68.272 304.03 61.9361V55.3841C304.03 48.9761 308.134 44.8001 314.254 44.8001C320.446 44.8001 324.55 48.9761 324.55 55.3841V61.9361C324.55 68.272 320.446 72.52 314.254 72.52Z" fill="white"/>
<path d="M358.233 37.7442C353.913 37.7442 350.313 39.8322 347.865 43.5041V41.9201C347.721 39.2562 346.353 37.7442 343.977 37.7442C341.529 37.7442 340.161 39.2562 340.161 41.9922V75.328C340.161 77.992 341.601 79.576 344.265 79.576C346.929 79.576 348.369 77.992 348.369 75.328V55.6721C348.369 49.5521 352.113 46.0241 357.801 45.3041C361.041 44.8001 362.697 44.0801 362.697 41.6321C362.697 38.8962 361.257 37.7442 358.233 37.7442Z" fill="white"/>
<path d="M383.154 37.6002C372.282 37.6002 365.082 44.5121 365.082 54.9521V62.3681C365.082 72.808 372.426 79.72 383.37 79.72C390.57 79.72 396.834 77.128 399.426 72.448C400.29 70.864 399.642 68.632 396.762 67.696C394.818 67.12 393.594 67.84 392.874 68.704C390.57 71.728 387.258 73.312 383.37 73.312C377.322 73.312 373.29 68.992 373.29 62.4401V61.2161H397.698C399.93 61.2161 401.154 59.9201 401.154 57.7601V54.9521C401.154 44.5121 393.954 37.6002 383.154 37.6002ZM392.946 55.3841H373.29V54.8081C373.29 48.3281 377.178 44.0081 383.154 44.0081C389.058 44.0081 392.946 48.3281 392.946 54.8081V55.3841Z" fill="white"/>
<path d="M426.577 37.7442C422.257 37.7442 418.657 39.8322 416.209 43.5041V41.9201C416.065 39.2562 414.697 37.7442 412.321 37.7442C409.873 37.7442 408.505 39.2562 408.505 41.9922V75.328C408.505 77.992 409.945 79.576 412.609 79.576C415.273 79.576 416.713 77.992 416.713 75.328V55.6721C416.713 49.5521 420.457 46.0241 426.145 45.3041C429.385 44.8001 431.041 44.0801 431.041 41.6321C431.041 38.8962 429.601 37.7442 426.577 37.7442Z" fill="white"/>
<defs>
<linearGradient id="paint0_linear" x1="3.6066" y1="104.374" x2="104.373" y2="3.60771" gradientUnits="userSpaceOnUse">
<stop offset="0.2111" stop-color="white"/>
<stop offset="0.4152" stop-color="white" stop-opacity="0"/>
<stop offset="0.5884" stop-color="white" stop-opacity="0"/>
<stop offset="0.806" stop-color="white"/>
</linearGradient>
</defs>
</svg>
