<svg width="504" height="324" viewBox="0 0 504 324" fill="none" xmlns="http://www.w3.org/2000/svg">
<path d="M180 0H216V36H180V0Z" fill="#F2F2F2"/>
<path d="M288 0H324V36H288V0Z" fill="#F2F2F2"/>
<path d="M252 0H288V36H252V0Z" fill="#F2F2F2"/>
<path d="M216 0H252V36H216V0Z" fill="#F2F2F2"/>
<path d="M180 36H216V72H180V36Z" fill="#F2F2F2"/>
<path d="M144 72H180V108H144V72Z" fill="#F2F2F2"/>
<path d="M252 72H288V108H252V72Z" fill="#F2F2F2"/>
<path d="M252 36H288V72H252V36Z" fill="#F2F2F2"/>
<path d="M216 72H252V108H216V72Z" fill="#F2F2F2"/>
<path d="M180 108H216V144H180V108Z" fill="#F2F2F2"/>
<path d="M144 144H180V180H144V144Z" fill="#F2F2F2"/>
<path d="M144 36H180V72H144V36Z" fill="#F2F2F2"/>
<path d="M252 144H288V180H252V144Z" fill="#F2F2F2"/>
<path d="M252 108H288V144H252V108Z" fill="#F2F2F2"/>
<path d="M216 144H252V180H216V144Z" fill="#F2F2F2"/>
<path d="M180 180H216V216H180V180Z" fill="#F2F2F2"/>
<path d="M144 216H180V252H144V216Z" fill="#F2F2F2"/>
<path d="M144 108H180V144H144V108Z" fill="#F2F2F2"/>
<path d="M468 72H504V108H468V72Z" fill="#F2F2F2"/>
<path d="M432 0H468V36H432V0Z" fill="#F2F2F2"/>
<path opacity="0.25" d="M432 180H468V216H432V180Z" fill="#F2F2F2"/>
<path d="M288 216H324V252H288V216Z" fill="#F2F2F2"/>
<path d="M216 288H252V324H216V288Z" fill="#F2F2F2"/>
<path d="M216 180H252V216H216V180Z" fill="#F2F2F2"/>
<path d="M468 0H504V36H468V0Z" fill="#999999"/>
<path d="M432 36H468V72H432V36Z" fill="#E6E6E6"/>
<path d="M396 72H432V108H396V72Z" fill="#F2F2F2"/>
<path opacity="0.25" d="M360 108H396V144H360V108Z" fill="#E6E6E6"/>
<path d="M432 72H504V108H432V72Z" fill="#E6E6E6"/>
<path d="M360 0H396V72H360V0Z" fill="#E6E6E6"/>
<path d="M324 36H360V72H324V36Z" fill="#E6E6E6"/>
<path d="M288 72H324V108H288V72Z" fill="#F2F2F2"/>
<path d="M252 108H288V144H252V108Z" fill="#F2F2F2"/>
<path d="M216 144H252V180H216V144Z" fill="#F2F2F2"/>
<path d="M216 36H252V72H216V36Z" fill="#F2F2F2"/>
<path opacity="0.25" d="M324 144H360V180H324V144Z" fill="#F2F2F2"/>
<path opacity="0.25" d="M396 144H432V180H396V144Z" fill="#F2F2F2"/>
<path opacity="0.25" d="M360 180H396V216H360V180Z" fill="#F2F2F2"/>
<path d="M288 144H324V180H288V144Z" fill="#F2F2F2"/>
<path d="M252 180H288V216H252V180Z" fill="#F2F2F2"/>
<path d="M216 216H252V252H216V216Z" fill="#F2F2F2"/>
<path d="M180 252H216V288H180V252Z" fill="#F2F2F2"/>
<path d="M180 144H216V180H180V144Z" fill="#F2F2F2"/>
<path d="M432 0H468V36H432V0Z" fill="#CCCCCC"/>
<path d="M396 36H432V72H396V36Z" fill="#CCCCCC"/>
<path d="M0 0H36V36H0V0Z" fill="#F2F2F2"/>
<path d="M108 0H144V36H108V0Z" fill="#F2F2F2"/>
<path d="M108 0H144V36H108V0Z" fill="#F2F2F2"/>
<path d="M72 36H108V72H72V36Z" fill="#F2F2F2"/>
<path d="M36 72H72V108H36V72Z" fill="#F2F2F2"/>
<path d="M144 36H180V108H144V36Z" fill="#F2F2F2"/>
<path d="M180 36H216V72H180V36Z" fill="#F2F2F2"/>
<path d="M144 72H180V108H144V72Z" fill="#F2F2F2"/>
<path d="M108 108H144V144H108V108Z" fill="#F2F2F2"/>
<path d="M72 144H108V180H72V144Z" fill="#F2F2F2"/>
<path d="M180 108H216V180H180V108Z" fill="#F2F2F2"/>
<path d="M108 72H144V108H108V72Z" fill="#F2F2F2"/>
<path d="M72 108H108V144H72V108Z" fill="#F2F2F2"/>
<path d="M36 144H72V180H36V144Z" fill="#F2F2F2"/>
<path d="M0 180H36V216H0V180Z" fill="#F2F2F2"/>
<path d="M108 180H144V216H108V180Z" fill="#F2F2F2"/>
<path d="M144 144H180V180H144V144Z" fill="#F2F2F2"/>
<path d="M108 180H144V216H108V180Z" fill="#F2F2F2"/>
<path d="M72 216H108V252H72V216Z" fill="#F2F2F2"/>
<path d="M36 252H72V288H36V252Z" fill="#F2F2F2"/>
<path d="M144 216H180V288H144V216Z" fill="#F2F2F2"/>
<path d="M36 144H72V216H36V144Z" fill="#F2F2F2"/>
<path d="M324 0H360V36H324V0Z" fill="#F2F2F2"/>
<path d="M288 36H324V72H288V36Z" fill="#F2F2F2"/>
<path d="M252 72H288V108H252V72Z" fill="#F2F2F2"/>
<path d="M360 72H396V108H360V72Z" fill="#F2F2F2"/>
</svg>