<?xml version="1.0" encoding="UTF-8"?>
<svg width="14px" height="14px" viewBox="0 0 14 14" version="1.1" xmlns="http://www.w3.org/2000/svg" xmlns:xlink="http://www.w3.org/1999/xlink">
    <title>Path</title>
    <g id="Page-1" stroke="none" stroke-width="1" fill="none" fill-rule="evenodd" opacity="0.400000006">
        <g id="main-view" transform="translate(-1377.000000, -215.000000)" fill="#FFFFFF">
            <g id="Group-5" transform="translate(1360.000000, 198.000000)">
                <path d="M18.6966991,17.9895924 C18.8919613,17.7943302 19.2085438,17.7943302 19.4038059,17.9895924 L24,22.5857864 L28.5961941,17.9895924 C28.7914562,17.7943302 29.1080387,17.7943302 29.3033009,17.9895924 L30.0104076,18.6966991 C30.2056698,18.8919613 30.2056698,19.2085438 30.0104076,19.4038059 L25.4142136,24 L30.0104076,28.5961941 C30.2056698,28.7914562 30.2056698,29.1080387 30.0104076,29.3033009 L29.3033009,30.0104076 C29.1080387,30.2056698 28.7914562,30.2056698 28.5961941,30.0104076 L24,25.4142136 L19.4038059,30.0104076 C19.2085438,30.2056698 18.8919613,30.2056698 18.6966991,30.0104076 L17.9895924,29.3033009 C17.7943302,29.1080387 17.7943302,28.7914562 17.9895924,28.5961941 L22.5857864,24 L17.9895924,19.4038059 C17.7943302,19.2085438 17.7943302,18.8919613 17.9895924,18.6966991 L18.6966991,17.9895924 Z" id="Path"></path>
            </g>
        </g>
    </g>
</svg>