<svg width="16" height="16" viewBox="0 0 16 16" fill="none" xmlns="http://www.w3.org/2000/svg">
<path d="M8.59328 0.966685L13.9266 3.63335C14.1488 3.74374 14.3357 3.9139 14.4664 4.12471C14.5972 4.33553 14.6665 4.57863 14.6666 4.82668V11.18C14.6665 11.4281 14.5972 11.6712 14.4664 11.882C14.3357 12.0928 14.1488 12.263 13.9266 12.3734L8.59328 15.04C8.40804 15.1327 8.20375 15.181 7.99662 15.181C7.78948 15.181 7.58519 15.1327 7.39995 15.04L2.06662 12.3734C1.8447 12.2615 1.65845 12.0899 1.52888 11.8779C1.3993 11.6659 1.33155 11.4218 1.33328 11.1734V4.82668C1.33342 4.57863 1.40274 4.33553 1.53347 4.12471C1.6642 3.9139 1.85114 3.74374 2.07328 3.63335L7.40662 0.966685C7.59099 0.875069 7.79407 0.827393 7.99995 0.827393C8.20583 0.827393 8.40891 0.875069 8.59328 0.966685V0.966685Z" stroke="#A5A5A5" stroke-linecap="round" stroke-linejoin="round"/>
<path d="M1.54663 4.10669L7.99996 7.33336L14.4533 4.10669" stroke="#A5A5A5" stroke-linecap="round" stroke-linejoin="round"/>
<path d="M8 15.1734V7.33337" stroke="#A5A5A5" stroke-linecap="round" stroke-linejoin="round"/>
</svg>