<svg width="11" height="8" viewBox="0 0 11 8" fill="none" xmlns="http://www.w3.org/2000/svg">
<path d="M10.8659 0.855043C10.6891 0.683736 10.4031 0.683736 10.2273 0.855043L7.07576 3.93745L4.21522 6.72548C4.04749 6.883 3.78276 6.883 3.61504 6.72548L0.769762 3.93543C0.675795 3.84387 0.544444 3.79662 0.411075 3.80745C0.278713 3.81828 0.157465 3.88522 0.0796774 3.99057C-0.0466221 4.17467 -0.0203526 4.41981 0.141311 4.57537L2.98659 7.34777C3.50694 7.85283 4.3476 7.85283 4.86694 7.34777L7.72541 4.57537L10.8676 1.47809C10.9525 1.39539 11 1.28315 11 1.16599C10.999 1.04884 10.9505 0.937585 10.8656 0.854879L10.8659 0.855043Z" fill="#10AA7F"/>
</svg>
