<svg width="16" height="16" viewBox="0 0 16 16" fill="none" xmlns="http://www.w3.org/2000/svg">
<path d="M12 5.33337C13.1046 5.33337 14 4.43794 14 3.33337C14 2.2288 13.1046 1.33337 12 1.33337C10.8954 1.33337 10 2.2288 10 3.33337C10 4.43794 10.8954 5.33337 12 5.33337Z" stroke="#A5A5A5" stroke-linecap="round" stroke-linejoin="round"/>
<path d="M4 10C5.10457 10 6 9.10457 6 8C6 6.89543 5.10457 6 4 6C2.89543 6 2 6.89543 2 8C2 9.10457 2.89543 10 4 10Z" stroke="#A5A5A5" stroke-linecap="round" stroke-linejoin="round"/>
<path d="M12 14.6666C13.1046 14.6666 14 13.7712 14 12.6666C14 11.5621 13.1046 10.6666 12 10.6666C10.8954 10.6666 10 11.5621 10 12.6666C10 13.7712 10.8954 14.6666 12 14.6666Z" stroke="#A5A5A5" stroke-linecap="round" stroke-linejoin="round"/>
<path d="M5.72656 9.00671L10.2799 11.66" stroke="#A5A5A5" stroke-linecap="round" stroke-linejoin="round"/>
<path d="M10.2732 4.33997L5.72656 6.9933" stroke="#A5A5A5" stroke-linecap="round" stroke-linejoin="round"/>
</svg>