<?xml version="1.0" encoding="UTF-8" standalone="no"?>
<svg
   xmlns:dc="http://purl.org/dc/elements/1.1/"
   xmlns:cc="http://creativecommons.org/ns#"
   xmlns:rdf="http://www.w3.org/1999/02/22-rdf-syntax-ns#"
   xmlns:svg="http://www.w3.org/2000/svg"
   xmlns="http://www.w3.org/2000/svg"
   xmlns:xlink="http://www.w3.org/1999/xlink"
   xmlns:sodipodi="http://sodipodi.sourceforge.net/DTD/sodipodi-0.dtd"
   xmlns:inkscape="http://www.inkscape.org/namespaces/inkscape"
   viewBox="0 0 246.74 379.17"
   version="1.1"
   id="svg582"
   sodipodi:docname="nearkat-prof.svg"
   inkscape:version="1.0.1 (c497b03c, 2020-09-10)">
  <metadata
     id="metadata586">
    <rdf:RDF>
      <cc:Work
         rdf:about="">
        <dc:format>image/svg+xml</dc:format>
        <dc:type
           rdf:resource="http://purl.org/dc/dcmitype/StillImage" />
        <dc:title></dc:title>
      </cc:Work>
    </rdf:RDF>
  </metadata>
  <sodipodi:namedview
     pagecolor="#ffffff"
     bordercolor="#666666"
     borderopacity="1"
     objecttolerance="10"
     gridtolerance="10"
     guidetolerance="10"
     inkscape:pageopacity="0"
     inkscape:pageshadow="2"
     inkscape:window-width="1356"
     inkscape:window-height="855"
     id="namedview584"
     showgrid="false"
     inkscape:snap-global="false"
     inkscape:zoom="0.91236601"
     inkscape:cx="183.25131"
     inkscape:cy="184.90981"
     inkscape:window-x="0"
     inkscape:window-y="23"
     inkscape:window-maximized="0"
     inkscape:current-layer="svg582" />
  <defs
     id="defs504">
    <style
       id="style502">.cls-1{fill:#d1ccbd;}.cls-2{fill:#f2f1ed;}.cls-3{fill:#dcd8cd;}.cls-4{fill:#e7e4dd;}.cls-5{fill:#332e20;}</style>
    <style
       id="style1255">.cls-1{fill:none;}.cls-2{fill:#f2f1ed;}.cls-10,.cls-3{fill:#d1ccbd;}.cls-4{fill:#918e86;}.cls-5{clip-path:url(#clip-path);}.cls-6{fill:#f9f5ba;}.cls-7{fill:#fff;}.cls-8{fill:url(#linear-gradient);}.cls-9{fill:url(#linear-gradient-2);}.cls-10{opacity:0.2;}</style>
    <clipPath
       id="clip-path">
      <path
         class="cls-1"
         d="M64.66,40.38s13.83,6.52,1,18.57c0,0-6.91,7.37-18.61,3.88C47,62.83,47,51.52,64.66,40.38Z"
         id="path1257" />
    </clipPath>
    <linearGradient
       id="linear-gradient"
       x1="17.04"
       y1="47.08"
       x2="37.59"
       y2="67.62"
       gradientUnits="userSpaceOnUse">
      <stop
         offset="0"
         stop-color="#fff"
         id="stop1260" />
      <stop
         offset="1"
         stop-color="#fff"
         stop-opacity="0"
         id="stop1262" />
    </linearGradient>
    <linearGradient
       id="linear-gradient-2"
       x1="58.39"
       y1="68.54"
       x2="81.89"
       y2="92.04"
       xlink:href="#linear-gradient" />
    <linearGradient
       inkscape:collect="always"
       xlink:href="#linear-gradient"
       id="linearGradient1376"
       gradientUnits="userSpaceOnUse"
       x1="17.04"
       y1="47.08"
       x2="37.59"
       y2="67.62" />
  </defs>
  <g
     id="g1578"
     transform="translate(-67.955183,10.960514)">
    <g
       id="Layer_2"
       data-name="Layer 2"
       transform="matrix(0.72715832,0,0,0.75717343,69.513471,92.068401)">
      <g
         id="line_work"
         data-name="line work">
        <path
           class="cls-1"
           d="m 141.56,256.74 c 0,0 35.41,102.7 82.62,90.1 32.39,-8.64 16.56,-42.44 0.18,-58 a 1.29,1.29 0 0 0 -2,1.58 c 7.2,12.4 19.6,38.55 -1,42.71 C 187.2,340.09 158.19,232 158.19,232"
           id="path506" />
        <path
           d="m 229.91,306.19 a 102.71,102.71 0 0 0 -7.55,-15.74 1.29,1.29 0 0 1 2,-1.58 80,80 0 0 1 13.48,17.06 c -0.05,-0.02 -4.44,-1.63 -7.93,0.26 z"
           id="path508" />
        <path
           d="m 221.92,331.23 a 12.46,12.46 0 0 1 -5.62,1.66 15.32,15.32 0 0 1 -5.83,-1.09 31,31 0 0 1 -9.7,-6.72 67.63,67.63 0 0 1 -7.52,-9.05 90.61,90.61 0 0 1 -6.08,-10 c 1.09,1.62 2.15,3.25 3.28,4.84 1.13,1.59 2.24,3.19 3.42,4.73 a 76.8,76.8 0 0 0 7.6,8.79 31.94,31.94 0 0 0 9.29,6.72 14.74,14.74 0 0 0 5.54,1.31 13.07,13.07 0 0 0 5.62,-1.19 z"
           id="path510" />
        <path
           d="m 168,261.46 c 1.42,4.09 2.95,8.16 4.55,12.19 1.6,4.03 3.31,8 5.14,12 a 128.84,128.84 0 0 0 6,11.54 53.1,53.1 0 0 0 3.65,5.39 19.72,19.72 0 0 0 4.63,4.53 19.8,19.8 0 0 1 -4.73,-4.45 55.14,55.14 0 0 1 -3.76,-5.34 128.14,128.14 0 0 1 -6.25,-11.45 c -1.91,-3.92 -3.69,-7.89 -5.38,-11.9 -1.69,-4.01 -3.3,-8.05 -4.8,-12.15 z"
           id="path512" />
        <path
           d="m 151.54,278.57 c 0.87,2.73 1.88,5.44 3,8.11 1.12,2.67 2.29,5.3 3.57,7.89 a 78.25,78.25 0 0 0 9.24,14.63 78.27,78.27 0 0 1 -9.69,-14.4 q -2,-3.84 -3.81,-7.83 c -1.17,-2.65 -2.27,-5.34 -3.24,-8.09 z"
           id="path514" />
        <path
           d="m 167.77,309 a 79.87,79.87 0 0 0 5.76,9.57 82.75,82.75 0 0 0 7,8.72 63.08,63.08 0 0 0 8.33,7.5 50.1,50.1 0 0 0 9.71,5.6 49.72,49.72 0 0 1 -9.86,-5.4 63.64,63.64 0 0 1 -8.54,-7.36 82.23,82.23 0 0 1 -7.28,-8.63 79.47,79.47 0 0 1 -6,-9.56 z"
           id="path516" />
        <path
           d="m 194.64,340.45 a 39.42,39.42 0 0 0 18.16,7 29.55,29.55 0 0 0 9.7,-0.55 35.26,35.26 0 0 0 9.06,-3.51 21.3,21.3 0 0 0 7.1,-6.44 19.87,19.87 0 0 0 3.17,-9 c 0.66,-6.47 -1.17,-13 -3.79,-18.89 A 65.16,65.16 0 0 0 227.4,292.69 c -1.07,-1.21 -2.22,-2.42 -3.38,-3.51 a 0.86,0.86 0 0 0 -1.25,1.16 l 0.61,1.07 c 1.62,2.88 3.12,5.83 4.47,8.84 a 70.86,70.86 0 0 1 3.47,9.28 35.23,35.23 0 0 1 1.6,9.78 12.83,12.83 0 0 1 -11.51,13.88 14.25,14.25 0 0 0 8.41,-4.7 13.94,13.94 0 0 0 2.65,-9.18 36.3,36.3 0 0 0 -1.72,-9.61 72.21,72.21 0 0 0 -3.57,-9.15 c -1.37,-3 -2.91,-5.87 -4.53,-8.72 l -0.62,-1.07 a 1.74,1.74 0 0 1 -0.17,-1.55 1.78,1.78 0 0 1 1.18,-1 1.65,1.65 0 0 1 1.54,0.35 c 1.25,1.16 2.37,2.34 3.49,3.58 a 66,66 0 0 1 10.86,16.56 47.18,47.18 0 0 1 3.19,9.43 31.13,31.13 0 0 1 0.64,10 20.58,20.58 0 0 1 -3.36,9.41 22.1,22.1 0 0 1 -7.42,6.68 34.29,34.29 0 0 1 -9.32,3.49 30.06,30.06 0 0 1 -9.92,0.39 35.07,35.07 0 0 1 -9.55,-2.62 39.89,39.89 0 0 1 -8.55,-5.03 z"
           id="path518" />
        <path
           class="cls-2"
           d="m 173.34,14.71 c 5.21,15.3 19.6,30.75 19.6,30.75 8.41,7.61 44,54.45 52.45,78.87 8.45,24.42 -32.53,41.14 -32.53,41.14 7.75,27.57 10.61,73.13 3.71,94.33 -6.9,21.2 -7.4,37.81 -7.4,37.81 -11.34,7.23 -19.72,27.95 -19.72,27.95 -8.55,25.81 3.28,25.48 3.28,25.48 0,0 24.5,4.76 30.09,9 5.59,4.24 -0.17,7.89 -0.17,7.89 1.48,3.45 -6.08,4.93 -6.08,4.93 -1.32,8.38 -27.95,4.11 -27.95,4.11 -29.58,-13.81 -25.8,-23 -20.21,-36.82 5.59,-13.82 -2.47,-27.13 -2.47,-27.13 9,-13 0,-29.26 0,-29.26 v 0 c -8.88,-1.31 -22,-9.2 -22,-9.2 -9.86,23.67 -4.11,50.79 -0.49,62.3 3.62,11.51 -8.22,28.77 -31.07,28.93 -22.85,0.16 -22.68,-7.07 -22.68,-7.07 -6.58,-3.12 -5.1,-5.59 -5.1,-5.59 -11.51,-10.68 33.86,-15 33.86,-15 10.52,-23 -17.75,-51.94 -17.75,-51.94 5.92,-11.51 3.29,-27.62 3.29,-27.62 -25.32,-53.26 13.31,-127.52 13.31,-127.52 -25.62,16 -53,-30.09 -58.45,-36.83 -5.6,-6.93 -8.56,-5.51 -8.56,-5.51 0,0 -3,0.85 -11.37,2.71 -4.87,1.09 -9,-0.19 -9.67,-2 -0.5,-1.5 0.45,-3.28 -0.77,-4.28 -1,-0.85 -1.95,-1.51 -2,-2.52 0,-1.62 -1.47,-1.75 -2.41,-3.07 A 7.5,7.5 0 0 1 23,75.09 C 5.87,80.21 1.64,74.66 0.72,70.4 a 3.59,3.59 0 0 1 3.15,-4.27 c 8,-0.87 28.22,-3.37 33.91,-6.6 7.12,-4.05 26.85,13.55 26.85,13.55 18.82,21.22 32.63,25.23 47.84,11.21 0,0 23.17,-19.39 30.84,-62.35 0,0 -1.21,-18.48 15.45,-19.14 0,0 8.55,-5.8 14.58,11.91 z"
           id="path520" />
        <line
           class="cls-2"
           x1="143.45"
           y1="276.76001"
           x2="171.33"
           y2="285.26999"
           id="line522" />
        <path
           class="cls-1"
           d="m 219,260.13 c 0.65,-5.4 1.14,-11 1.43,-16.87 L 196,242 Z m 1.08,-48.13 -22.08,6 22.75,9.93 q -0.11,-7.75 -0.67,-15.93 z m -4.08,-31.77 -16.86,11.34 19.18,3.19 q -0.93,-7.12 -2.32,-14.53 z"
           id="path524" />
        <path
           class="cls-3"
           d="m 156.55,28.5 c -0.51,1.23 -0.93,2.49 -1.32,3.76 -0.39,1.27 -0.77,2.54 -1.11,3.82 -0.68,2.57 -1.23,5.16 -1.72,7.76 -0.49,2.6 -0.92,5.22 -1.25,7.85 -0.33,2.63 -0.59,5.26 -0.79,7.89 L 149,59 c 1.6,-1.8 3.19,-3.6 4.82,-5.38 a 0.85,0.85 0 0 1 1.2,-0.06 0.83,0.83 0 0 1 0.23,0.92 v 0 c -1.59,4.46 -3.11,9 -4.52,13.47 a 136.22,136.22 0 0 0 -3.68,13.64 25.49,25.49 0 0 0 -0.46,3.39 4.83,4.83 0 0 0 0.09,1.4 c 0,0.07 0,0.11 0,0.09 a 0.36,0.36 0 0 0 -0.2,-0.11 c -0.17,0 0,0 0.15,-0.1 a 23.28,23.28 0 0 0 2.56,-2.26 3.53,3.53 0 0 1 1.05,-0.63 1.41,1.41 0 0 1 0.52,-0.1 1.34,1.34 0 0 1 0.77,0.23 1.52,1.52 0 0 1 0.6,1 6.11,6.11 0 0 1 -0.16,2.14 62.62,62.62 0 0 1 -2.14,6.92 l -2.44,6.7 c -1.64,4.45 -3.29,8.91 -4.56,13.4 a 17.07,17.07 0 0 0 -0.63,3.33 3.12,3.12 0 0 0 0,0.71 c 0,0.2 0.11,0.24 0,0.19 a 0.7,0.7 0 0 0 0.33,-0.07 5.51,5.51 0 0 1 1,-0.32 2.11,2.11 0 0 1 1.29,0.11 1.82,1.82 0 0 1 0.92,1 5,5 0 0 1 0.28,2 25,25 0 0 1 -0.49,3.63 c -1,4.7 -2.28,9.24 -3.25,13.88 a 61.07,61.07 0 0 0 -1.12,7 24.29,24.29 0 0 0 0.2,7.07 23.19,23.19 0 0 1 -0.6,-7.1 62.73,62.73 0 0 1 0.82,-7.1 c 0.39,-2.35 0.85,-4.69 1.34,-7 0.49,-2.31 1,-4.64 1.42,-6.95 a 22.87,22.87 0 0 0 0.37,-3.44 4,4 0 0 0 -0.2,-1.47 c -0.09,-0.18 -0.17,-0.25 -0.25,-0.28 a 0.73,0.73 0 0 0 -0.45,0 4,4 0 0 0 -0.71,0.26 1.82,1.82 0 0 1 -1.4,0.1 1.32,1.32 0 0 1 -0.68,-0.58 2.06,2.06 0 0 1 -0.26,-0.63 4.5,4.5 0 0 1 -0.09,-1.07 18.64,18.64 0 0 1 0.57,-3.67 c 0.57,-2.36 1.3,-4.63 2.07,-6.89 0.77,-2.26 1.56,-4.5 2.36,-6.74 l 2.38,-6.7 a 62.19,62.19 0 0 0 2,-6.7 4.83,4.83 0 0 0 0.14,-1.39 c 0,0 -0.05,0 0.19,0.23 0.24,0.23 0.47,0.09 0.44,0.1 a 2.58,2.58 0 0 0 -0.45,0.31 20.86,20.86 0 0 1 -2.73,2.52 2.22,2.22 0 0 1 -1.55,0.31 1.63,1.63 0 0 1 -0.92,-0.58 2.17,2.17 0 0 1 -0.37,-0.7 6.09,6.09 0 0 1 -0.2,-2.13 28.7,28.7 0 0 1 0.52,-3.67 141.69,141.69 0 0 1 3.88,-13.84 q 2.21,-6.8 4.67,-13.5 l 1.44,0.88 c -1.63,1.77 -3.28,3.52 -4.92,5.27 v 0 a 0.79,0.79 0 0 1 -1.1,0 0.75,0.75 0 0 1 -0.24,-0.65 c 0.3,-2.66 0.63,-5.31 1.07,-8 0.44,-2.69 0.95,-5.26 1.55,-7.87 0.6,-2.61 1.35,-5.17 2.18,-7.7 a 54.19,54.19 0 0 1 2.9,-7.32 z"
           id="path526" />
        <path
           class="cls-4"
           d="m 151.31,194.54 c 0,0 -10.52,-28.93 14.46,-30.9 24.98,-1.97 80.55,-17.43 73.65,-54.25 0,0 14.14,25 -0.33,39.13 -14.47,14.13 -43.73,25 -72.33,22.35 l 1.75,11.84 c 0,0 11.07,0 9.76,6.13 a 8.58,8.58 0 0 1 -3.4,5.48 c 0,0 3.62,5.48 -1,8.77 -4.62,3.29 -11.49,4.28 -22.56,-8.55 z"
           id="path528" />
        <path
           class="cls-4"
           d="m 187.36,112.46 c 1.44,6.31 2.62,12.86 3.54,19.52 9,-7.77 17.26,-17.67 17,-27.85 a 2.81,2.81 0 0 1 0,-0.29 c -17.14,-27 -35.4,-65.9 -35.4,-65.9 0,0 -0.04,9.21 14.86,74.52 z m 35.46,247.62 c -5.59,-4.28 -30.09,-9 -30.09,-9 0,0 -11.83,0.33 -3.28,-25.48 0,0 8.38,-20.72 19.72,-27.95 0,0 0.5,-16.6 7.4,-37.81 6.9,-21.21 4,-66.76 -3.71,-94.33 a 91.64,91.64 0 0 0 18.8,-10.94 c -19.19,9.6 -27,13.66 -38.48,15.2 -0.8,50.25 -17.44,95 -53.6,85.2 -50,-13.59 5.71,-210.69 11.4,-226.63 5,-14 18.82,-24.73 21.45,-19.2 0,-0.3 0,-0.6 0,-0.88 a 7.73,7.73 0 0 0 -7.17,-8.13 c -2,-0.11 -3.92,-0.15 -5.71,-0.12 A 16.07,16.07 0 0 0 143.64,16.19 40.55,40.55 0 0 1 143.31,21.94 138.14,138.14 0 0 1 138,42.51 C 135.58,63.43 121.61,112.9 121.61,112.9 89.61,130.43 60.24,83.09 52.35,71.69 44.46,60.29 21.23,72.57 15.09,73.89 11.43,74.67 5.09,74.21 0.61,73.7 1.26,76.54 5,80.46 23,75.09 a 7.5,7.5 0 0 0 1.1,4.49 c 0.9,1.32 2.34,1.42 2.39,3.07 0,1 0.93,1.67 2,2.52 1.22,1 0.27,2.78 0.77,4.28 0.62,1.86 4.8,3.14 9.67,2 8.33,-1.86 11.37,-2.71 11.37,-2.71 0,0 3,-1.42 8.56,5.51 5.44,6.74 32.83,52.85 58.45,36.83 0,0 -38.63,74.26 -13.31,127.52 0,0 2.63,16.11 -3.29,27.62 0,0 28.27,28.93 17.75,51.94 0,0 -45.37,4.28 -33.86,15 0,0 -1.48,2.47 5.1,5.59 0,0 -0.17,7.24 22.68,7.07 22.85,-0.17 34.62,-17.41 31.04,-28.92 -3.58,-11.51 -9.37,-38.63 0.49,-62.3 0,0 13.15,7.89 22,9.2 0,0 9,16.28 0,29.26 0,0 8.05,13.32 2.47,27.13 C 162.8,354 159,363.2 188.62,377 c 0,0 26.63,4.27 27.95,-4.11 0,0 7.56,-1.48 6.08,-4.93 0,0.04 5.75,-3.61 0.17,-7.88 z M 166,283.81 l 0.54,0.08 z m 2.55,0.38 0.71,0.11 z"
           id="path530" />
        <path
           d="m 213,166.6 a 186.79,186.79 0 0 1 6.12,26.88 c 0.73,4.54 1.27,9.12 1.71,13.7 0.44,4.58 0.66,9.2 0.78,13.8 0.12,4.6 0,9.23 -0.26,13.83 -0.26,4.6 -0.76,9.2 -1.46,13.76 a 124.55,124.55 0 0 1 -2.89,13.52 105.62,105.62 0 0 1 -4.62,13 131.1,131.1 0 0 0 3.67,-13.23 c 0.95,-4.47 1.74,-9 2.29,-13.51 a 193.39,193.39 0 0 0 1.28,-27.35 266.19,266.19 0 0 0 -2,-27.33 c -0.57,-4.54 -1.22,-9.07 -2,-13.58 -0.78,-4.51 -1.62,-9.01 -2.62,-13.49 z"
           id="path532" />
        <path
           d="m 101,234.65 a 100.88,100.88 0 0 1 3.3,12.85 91.43,91.43 0 0 1 1.58,13.21 62.32,62.32 0 0 1 -0.71,13.36 37.39,37.39 0 0 1 -4.44,12.76 l -0.17,-1.21 a 78.52,78.52 0 0 1 8.71,10.17 71.5,71.5 0 0 1 6.87,11.47 48.28,48.28 0 0 1 4.09,12.74 31.25,31.25 0 0 1 -0.58,13.24 33.67,33.67 0 0 0 0.39,-6.57 37.88,37.88 0 0 0 -0.88,-6.46 51.42,51.42 0 0 0 -4.54,-12.21 79.7,79.7 0 0 0 -6.91,-11.07 q -2,-2.62 -4.08,-5.11 c -1.4,-1.66 -2.88,-3.3 -4.39,-4.8 v 0 a 1,1 0 0 1 -0.16,-1.19 37,37 0 0 0 4.38,-12.07 65.66,65.66 0 0 0 1,-13 105,105 0 0 0 -1,-13.12 120.17,120.17 0 0 0 -2.46,-12.99 z"
           id="path534" />
        <path
           d="m 213.1,259.61 c -0.91,3.1 -1.73,6.21 -2.38,9.35 -0.65,3.14 -1.23,6.3 -1.6,9.47 a 67.51,67.51 0 0 0 -0.51,9.52 35.87,35.87 0 0 0 1.35,9.27 1,1 0 0 1 -0.3,1 v 0 a 78.57,78.57 0 0 0 -8.55,8.93 74.07,74.07 0 0 0 -7,10.18 50.61,50.61 0 0 0 -4.8,11.38 41.9,41.9 0 0 0 -1.2,6.1 40.66,40.66 0 0 0 -0.15,6.25 34,34 0 0 1 0.29,-12.6 46.9,46.9 0 0 1 4.37,-11.94 65.79,65.79 0 0 1 7,-10.6 69.56,69.56 0 0 1 8.81,-9.2 l -0.3,1 a 35.26,35.26 0 0 1 -1.24,-9.81 59.78,59.78 0 0 1 0.87,-9.74 82.26,82.26 0 0 1 2.18,-9.47 83.92,83.92 0 0 1 3.16,-9.09 z"
           id="path536" />
        <path
           d="m 137.45,302 a 59.11,59.11 0 0 0 1,16.1 71.19,71.19 0 0 0 4.74,15.34 31.77,31.77 0 0 1 1.49,3.89 16.91,16.91 0 0 1 0.62,4.24 17.53,17.53 0 0 1 -2,8.26 24.82,24.82 0 0 1 -5.12,6.68 33.35,33.35 0 0 1 -6.76,4.89 43.79,43.79 0 0 1 -32.18,3.87 c -1.33,-0.36 -2.63,-0.77 -3.93,-1.24 a 19.88,19.88 0 0 1 -3.81,-1.77 6,6 0 0 1 -1.7,-1.48 2.6,2.6 0 0 1 -0.5,-1.2 2.14,2.14 0 0 1 0.25,-1.31 4.72,4.72 0 0 1 1.6,-1.63 12.39,12.39 0 0 1 1.85,-1 45.13,45.13 0 0 1 7.82,-2.46 c 2.65,-0.62 5.32,-1.1 8,-1.47 -2.64,0.57 -5.27,1.24 -7.87,2 a 43.29,43.29 0 0 0 -7.53,2.81 14,14 0 0 0 -1.67,1 3.84,3.84 0 0 0 -1.19,1.27 c -0.49,0.86 0.52,1.77 1.61,2.39 a 31.94,31.94 0 0 0 7.45,2.62 43.44,43.44 0 0 0 30.83,-4.11 c 4.56,-2.58 8.74,-6.12 11.13,-10.72 a 16,16 0 0 0 1.89,-7.36 15.78,15.78 0 0 0 -0.49,-3.8 32.75,32.75 0 0 0 -1.35,-3.7 66.47,66.47 0 0 1 -4.25,-15.82 57.08,57.08 0 0 1 -0.59,-8.15 42.43,42.43 0 0 1 0.66,-8.14 z"
           id="path538" />
        <path
           d="m 123.6,326.24 a 11.52,11.52 0 0 1 0.29,7.3 8.22,8.22 0 0 1 -2,3.28 9.84,9.84 0 0 1 -3.25,2.09 16.88,16.88 0 0 1 -3.67,1 l -3.6,0.55 -7.17,1 c -2.38,0.34 -4.76,0.67 -7.11,1.1 a 67.89,67.89 0 0 0 -7,1.53 27.11,27.11 0 0 0 -3.32,1.15 10.16,10.16 0 0 0 -2.93,1.76 3.51,3.51 0 0 0 -1.28,2.89 6.94,6.94 0 0 0 1.33,3.24 6.67,6.67 0 0 1 -1.89,-3.2 4.24,4.24 0 0 1 1.12,-3.67 16.27,16.27 0 0 1 6.49,-3.73 76.61,76.61 0 0 1 14.31,-3.08 c 2.41,-0.31 4.81,-0.61 7.21,-0.86 l 3.59,-0.4 a 16.07,16.07 0 0 0 3.38,-0.68 9.21,9.21 0 0 0 2.9,-1.61 7.22,7.22 0 0 0 2,-2.69 12.18,12.18 0 0 0 0.6,-6.97 z"
           id="path540" />
        <path
           d="m 89.3,359.5 a 16.07,16.07 0 0 1 -3.08,-1.67 6,6 0 0 1 -2.38,-2.9 3,3 0 0 1 0.16,-2.1 4.89,4.89 0 0 1 1.16,-1.5 9,9 0 0 1 1.42,-1 16.22,16.22 0 0 1 1.47,-0.82 25.05,25.05 0 0 1 6.29,-2.16 31.36,31.36 0 0 1 6.54,-0.67 30.24,30.24 0 0 0 -6.42,1.16 24.16,24.16 0 0 0 -5.92,2.54 13.41,13.41 0 0 0 -2.54,1.86 2.17,2.17 0 0 0 -0.76,2.23 4.64,4.64 0 0 0 1.93,1.9 13.56,13.56 0 0 0 2.83,1.24 z"
           id="path542" />
        <path
           d="m 198.46,364.22 c 2.6,0.64 5.19,1.38 7.74,2.25 a 45.52,45.52 0 0 1 7.46,3.17 12.59,12.59 0 0 1 1.73,1.14 5.13,5.13 0 0 1 1.47,1.65 2.43,2.43 0 0 1 0.25,1.24 2.13,2.13 0 0 1 -0.49,1.18 5.2,5.2 0 0 1 -1.76,1.38 19,19 0 0 1 -3.9,1.41 c -1.32,0.35 -2.64,0.63 -4,0.87 a 43.67,43.67 0 0 1 -31.4,-6.5 35.18,35.18 0 0 1 -6.32,-5.31 24.57,24.57 0 0 1 -4.64,-6.92 18,18 0 0 1 -1.59,-8.27 16.94,16.94 0 0 1 0.77,-4.18 21.11,21.11 0 0 1 1.73,-3.83 33.41,33.41 0 0 0 3,-7.22 29.7,29.7 0 0 0 1.05,-7.73 28.16,28.16 0 0 0 -1.05,-7.74 25.83,25.83 0 0 0 -3.14,-7.14 l -0.2,-0.3 0.14,-0.31 a 31.08,31.08 0 0 0 2,-6.09 39.83,39.83 0 0 0 1,-6.42 40.57,40.57 0 0 0 -0.1,-6.52 43.17,43.17 0 0 0 -1.15,-6.45 38.61,38.61 0 0 1 1.93,13 39.39,39.39 0 0 1 -0.69,6.59 31.47,31.47 0 0 1 -1.93,6.41 l -0.06,-0.61 a 27.07,27.07 0 0 1 3.55,7.44 29.28,29.28 0 0 1 0.34,16.32 36.2,36.2 0 0 1 -3.07,7.65 18.41,18.41 0 0 0 -1.55,3.51 14.74,14.74 0 0 0 -0.65,3.72 16.13,16.13 0 0 0 1.49,7.37 28.39,28.39 0 0 0 10.21,11.47 41.77,41.77 0 0 0 14.42,6.11 47.85,47.85 0 0 0 7.82,1 42.48,42.48 0 0 0 7.89,-0.41 29.3,29.3 0 0 0 7.59,-1.95 c 1.14,-0.54 2.14,-1.4 1.6,-2.37 a 7.48,7.48 0 0 0 -2.72,-2.52 45.31,45.31 0 0 0 -7.19,-3.45 c -2.49,-0.93 -5.04,-1.86 -7.58,-2.64 z"
           id="path544" />
        <path
           d="m 186.24,337.47 a 12.2,12.2 0 0 0 -0.1,7 7.3,7.3 0 0 0 1.72,2.87 9.38,9.38 0 0 0 2.76,1.88 16.2,16.2 0 0 0 3.3,1 l 3.53,0.75 c 2.37,0.47 4.73,1 7.1,1.55 a 75.84,75.84 0 0 1 13.94,4.48 16,16 0 0 1 6.1,4.33 4.23,4.23 0 0 1 0.77,3.76 6.64,6.64 0 0 1 -2.19,3 7.08,7.08 0 0 0 1.64,-3.1 3.52,3.52 0 0 0 -1,-3 10.33,10.33 0 0 0 -2.74,-2 27.36,27.36 0 0 0 -3.2,-1.48 68.16,68.16 0 0 0 -6.8,-2.18 c -2.3,-0.66 -4.64,-1.22 -7,-1.79 l -7,-1.68 -3.53,-0.89 a 16.66,16.66 0 0 1 -3.56,-1.32 9.76,9.76 0 0 1 -3,-2.4 8,8 0 0 1 -1.68,-3.45 11.43,11.43 0 0 1 0.94,-7.33 z"
           id="path546" />
        <path
           d="m 216.69,371.94 a 13.76,13.76 0 0 0 2.88,-1 4.52,4.52 0 0 0 2.1,-1.7 2.16,2.16 0 0 0 -0.54,-2.3 13.83,13.83 0 0 0 -2.32,-2.1 24.4,24.4 0 0 0 -5.65,-3.1 30.38,30.38 0 0 0 -6.28,-1.77 30.5,30.5 0 0 1 6.45,1.3 25.34,25.34 0 0 1 6,2.75 16.2,16.2 0 0 1 1.38,1 9.3,9.3 0 0 1 1.31,1.14 4.72,4.72 0 0 1 1,1.61 3,3 0 0 1 0,2.1 6,6 0 0 1 -2.66,2.66 16.5,16.5 0 0 1 -3.23,1.37 z"
           id="path548" />
        <path
           d="m 114.91,81.67 a 40.86,40.86 0 0 1 -7.56,7.24 23.83,23.83 0 0 1 -4.57,2.64 17.5,17.5 0 0 1 -5.13,1.45 15.9,15.9 0 0 1 -5.37,-0.24 31.54,31.54 0 0 1 -5,-1.7 59.38,59.38 0 0 1 -9.31,-5 c -6,-3.81 -11.17,-8.54 -16.39,-13.14 -2.61,-2.3 -5.21,-4.59 -7.94,-6.69 a 47.68,47.68 0 0 0 -4.21,-2.9 24.45,24.45 0 0 0 -4.51,-2.21 14.13,14.13 0 0 0 -9.59,-0.34 10.14,10.14 0 0 0 -1.16,0.43 c -0.38,0.16 -0.75,0.3 -1.16,0.5 l -2.38,1.1 c -1.61,0.72 -3.24,1.4 -4.9,2 a 35.25,35.25 0 0 1 -10.5,1.89 c -3.52,0.21 -7,0.12 -10.51,0 A 3.77,3.77 0 0 0 3.62,66.77 2.9,2.9 0 0 0 2.69,67.19 2.93,2.93 0 0 0 1.52,68.88 2.9,2.9 0 0 0 1.4,70 a 8.76,8.76 0 0 0 0.23,1.18 9.23,9.23 0 0 0 0.91,2.25 6.7,6.7 0 0 0 1.54,1.81 7.58,7.58 0 0 0 2.11,1.15 12.61,12.61 0 0 0 5,0.44 42.61,42.61 0 0 0 10.11,-1.92 50.77,50.77 0 0 0 9.57,-4.09 45.73,45.73 0 0 1 -9.4,4.59 A 42.62,42.62 0 0 1 11.23,77.8 13.16,13.16 0 0 1 5.84,77.46 8.71,8.71 0 0 1 3.34,76.18 7.86,7.86 0 0 1 1.46,74.08 10.33,10.33 0 0 1 0.35,71.53 10.61,10.61 0 0 1 0,70.16 4.22,4.22 0 0 1 0.07,68.62 4.34,4.34 0 0 1 1.74,66.06 4.1,4.1 0 0 1 3.15,65.38 5.44,5.44 0 0 1 4.65,65.22 c 3.48,0 7,0 10.39,-0.22 a 33.6,33.6 0 0 0 10,-1.87 c 1.6,-0.6 3.19,-1.28 4.76,-2 L 32.16,60 c 0.37,-0.19 0.81,-0.36 1.23,-0.54 0.42,-0.18 0.84,-0.38 1.29,-0.5 a 16,16 0 0 1 10.87,0.28 26.05,26.05 0 0 1 4.84,2.42 50.16,50.16 0 0 1 4.37,3.06 c 2.78,2.18 5.39,4.51 8,6.85 a 158,158 0 0 0 16,13.21 57.17,57.17 0 0 0 9,5.09 30.51,30.51 0 0 0 4.8,1.76 14.87,14.87 0 0 0 5,0.37 16.32,16.32 0 0 0 4.94,-1.16 24.52,24.52 0 0 0 4.57,-2.38 35.86,35.86 0 0 0 4.1,-3.17 51.51,51.51 0 0 0 3.74,-3.62 z"
           id="path550" />
        <path
           d="m 116.51,130.71 a 18.76,18.76 0 0 1 -8.67,4 20,20 0 0 1 -9.42,-0.85 35.35,35.35 0 0 1 -8.36,-4.12 A 62.91,62.91 0 0 1 82.77,124 116,116 0 0 1 70.26,110.56 C 66.42,105.8 62.85,100.83 59.44,95.77 v 0 a 19.94,19.94 0 0 0 -3.34,-4.16 12.74,12.74 0 0 0 -4.51,-2.84 12.58,12.58 0 0 1 4.6,2.75 20,20 0 0 1 3.47,4.13 v 0 c 3.53,5 7.21,9.84 11.15,14.49 a 116,116 0 0 0 12.72,13 c 4.6,3.89 9.68,7.42 15.37,9.15 a 18.49,18.49 0 0 0 8.66,0.59 16.94,16.94 0 0 0 7.71,-3.76 1,1 0 1 1 1.28,1.53 v 0 z"
           id="path552" />
        <path
           d="m 113.43,247.87 a 78.75,78.75 0 0 0 11.66,12.92 c 1.08,1 2.14,1.94 3.28,2.84 1.14,0.9 2.21,1.87 3.41,2.68 1.2,0.81 2.31,1.73 3.5,2.55 l 3.64,2.35 c 1.2,0.82 2.5,1.46 3.74,2.2 l 1.88,1.07 c 0.63,0.36 1.3,0.64 1.94,1 l 3.89,1.93 4,1.69 2,0.85 c 0.66,0.28 1.36,0.47 2,0.73 l 4.12,1.45 c 2.75,1 5.59,1.6 8.38,2.52 -1.44,-0.22 -2.88,-0.46 -4.33,-0.73 l -2.17,-0.38 -1.08,-0.2 -1.07,-0.27 a 83.69,83.69 0 0 1 -8.46,-2.51 c -1.38,-0.51 -2.77,-1 -4.14,-1.54 l -4,-1.84 c -0.67,-0.31 -1.35,-0.6 -2,-1 l -1.93,-1.07 c -1.28,-0.74 -2.61,-1.39 -3.84,-2.21 A 76.65,76.65 0 0 1 124,261.9 57.42,57.42 0 0 1 113.43,247.87 Z"
           id="path554" />
        <path
           class="cls-5"
           d="m 181.8,68 q 5.72,13.3 11,26.8 2.64,6.75 5.08,13.6 a 95.43,95.43 0 0 1 3.78,12.08 l -2.93,3.3 a 138.71,138.71 0 0 0 -3.46,-14.55 q -2,-6.93 -4.19,-13.82 Q 186.69,81.59 181.8,68 Z"
           id="path556"
           clip-path="url(#clip-path)" />
        <path
           d="m 229.58,84.5 a 29,29 0 0 1 -5.24,-3.32 c -1.66,-1.25 -3.23,-2.61 -4.79,-4 -3.07,-2.78 -6,-5.71 -8.84,-8.73 -5.69,-6 -11,-12.33 -16.25,-18.75 -2.61,-3.21 -5.15,-6.47 -7.67,-9.75 -1.26,-1.64 -2.51,-3.28 -3.74,-4.95 -0.62,-0.84 -1.22,-1.63 -1.84,-2.53 -0.62,-0.9 -1.14,-1.75 -1.69,-2.64 a 67.47,67.47 0 0 1 -5.52,-11.2 33.08,33.08 0 0 1 -1.64,-6 14.93,14.93 0 0 1 0.1,-6.21 16.23,16.23 0 0 0 0.5,6.09 36.86,36.86 0 0 0 2.04,5.71 77.12,77.12 0 0 0 6,10.71 c 0.56,0.86 1.13,1.71 1.72,2.54 0.59,0.83 1.23,1.62 1.85,2.43 l 3.79,4.88 7.67,9.7 c 5.16,6.43 10.39,12.79 15.81,19 2.73,3.09 5.48,6.14 8.37,9.07 1.45,1.46 2.91,2.91 4.47,4.25 a 33.64,33.64 0 0 0 4.9,3.7 z"
           id="path558" />
        <path
           d="m 166.32,170.76 a 115.55,115.55 0 0 0 18.8,-1.07 110.8,110.8 0 0 0 18.44,-3.19 c 12,-3.18 23.53,-8.83 32.67,-17.28 1.08,-1.09 2.29,-2.14 3.26,-3.27 a 20.87,20.87 0 0 0 2.59,-3.68 21.72,21.72 0 0 0 2.56,-8.61 c 0.53,-6.07 -1,-12.23 -3.17,-18 a 103.22,103.22 0 0 0 -8.39,-16.71 c -3,-5.53 -6.3,-10.88 -9.71,-16.19 a 182.61,182.61 0 0 1 11.45,15.14 109.4,109.4 0 0 1 8.52,17.05 c 2.23,5.95 3.85,12.36 3.29,18.91 a 23.61,23.61 0 0 1 -2.8,9.39 23.25,23.25 0 0 1 -2.83,4 c -0.54,0.62 -1.12,1.2 -1.69,1.75 l -1.72,1.67 c -9.43,8.71 -21.23,14.5 -33.52,17.74 a 109.79,109.79 0 0 1 -18.78,3.24 c -3.18,0.12 -6.35,0.11 -9.52,0 a 80.58,80.58 0 0 1 -9.45,-0.89 z"
           id="path560" />
        <path
           d="m 207.36,109.12 a 31.19,31.19 0 0 1 -3.64,9 57.78,57.78 0 0 1 -5.68,8 35.34,35.34 0 0 1 -3.39,3.53 c -1.18,1.13 -2.39,2.23 -3.61,3.3 -2.46,2.14 -5,4.16 -7.62,6.1 a 185.87,185.87 0 0 1 -16.24,10.72 c -2.79,1.65 -5.61,3.23 -8.47,4.77 -1.42,0.76 -2.86,1.52 -4.3,2.25 a 20.14,20.14 0 0 0 -3.93,2.45 19,19 0 0 0 -7,16.21 18.6,18.6 0 0 0 0.89,4.5 39.24,39.24 0 0 0 1.82,4.34 56.52,56.52 0 0 0 4.8,8.2 42.06,42.06 0 0 0 6.24,7.06 19.46,19.46 0 0 0 7.92,4.51 9.76,9.76 0 0 0 4.36,0.15 7.19,7.19 0 0 0 2,-0.75 12.83,12.83 0 0 0 1.85,-1.16 4.73,4.73 0 0 0 2.09,-3.38 7.28,7.28 0 0 0 -1.24,-4.18 v 0 a 0.56,0.56 0 0 1 0.14,-0.71 13.36,13.36 0 0 0 2.4,-2.41 6.54,6.54 0 0 0 1.4,-3 3.76,3.76 0 0 0 -1,-3.08 9,9 0 0 0 -2.87,-2 9.21,9.21 0 0 1 3.08,1.8 4.6,4.6 0 0 1 1.08,1.49 4.17,4.17 0 0 1 0.33,1.85 7.32,7.32 0 0 1 -1.29,3.46 14.81,14.81 0 0 1 -2.41,2.78 l 0.11,-0.73 a 8.53,8.53 0 0 1 1.82,4.81 5.86,5.86 0 0 1 -0.65,2.72 7.7,7.7 0 0 1 -1.71,2.15 9.22,9.22 0 0 1 -2.21,1.44 10.29,10.29 0 0 1 -2.52,0.9 11.72,11.72 0 0 1 -5.24,-0.17 21.33,21.33 0 0 1 -8.76,-4.95 43.79,43.79 0 0 1 -6.55,-7.4 58.75,58.75 0 0 1 -5,-8.49 41.55,41.55 0 0 1 -1.91,-4.58 21,21 0 0 1 0.68,-14.9 20.9,20.9 0 0 1 6.11,-8 22.54,22.54 0 0 1 4.26,-2.72 q 2.15,-1.09 4.27,-2.23 4.24,-2.28 8.39,-4.74 a 183.35,183.35 0 0 0 16.07,-10.59 111.9,111.9 0 0 0 14.41,-12.62 c 4.51,-4.46 8.56,-9.58 10.72,-15.7 z"
           id="path562" />
        <path
           d="m 136.51,58.11 c -1.63,7.83 -3.48,15.62 -5.34,23.4 -1.86,7.78 -3.94,15.51 -6.06,23.24 -2.12,7.73 -4.42,15.39 -6.87,23 -2.45,7.61 -5.28,15.15 -7.9,22.67 a 276,276 0 0 0 -12.17,46.2 c -2.53,15.69 -3,31.9 0.54,47.55 a 102.29,102.29 0 0 1 -3.47,-23.75 145.12,145.12 0 0 1 1.46,-24 201.23,201.23 0 0 1 4.81,-23.59 c 2,-7.77 4.38,-15.44 7,-23 1.27,-3.8 2.69,-7.56 4.06,-11.31 1.37,-3.75 2.67,-7.51 3.94,-11.3 2.53,-7.57 4.8,-15.23 7.1,-22.88 2.3,-7.65 4.49,-15.35 6.61,-23.06 2.12,-7.71 4.21,-15.45 6.29,-23.17 z"
           id="path564" />
        <path
           d="m 142.76,275.11 a 60.59,60.59 0 0 0 -2.11,7.41 56.32,56.32 0 0 0 -1.18,7.65 39.35,39.35 0 0 0 0.11,7.75 25.44,25.44 0 0 0 2.13,7.47 25.67,25.67 0 0 1 -2.63,-7.39 41.54,41.54 0 0 1 -0.61,-7.88 57.82,57.82 0 0 1 0.7,-7.88 62.5,62.5 0 0 1 1.7,-7.78 1,1 0 0 1 1.92,0.56 0.14,0.14 0 0 0 0,0.06 z"
           id="path566" />
        <path
           d="m 109.08,81.07 a 14.74,14.74 0 0 0 7.29,-2.94 28.7,28.7 0 0 0 5.52,-5.65 72.26,72.26 0 0 0 8,-13.79 C 131,56.27 132,53.82 133,51.32 c 1,-2.5 1.92,-5 2.79,-7.52 1.77,-5 3.38,-10.17 4.87,-15.33 v 0 0 a 61.05,61.05 0 0 0 2.16,-7.85 36.47,36.47 0 0 0 0.8,-8.15 27,27 0 0 1 0.28,4.13 c 0,1.38 -0.12,2.77 -0.27,4.14 -0.15,1.37 -0.38,2.75 -0.66,4.11 -0.28,1.36 -0.6,2.7 -1,4.06 v -0.05 q -1.84,7.89 -4.38,15.6 c -0.87,2.57 -1.78,5.11 -2.76,7.64 -0.98,2.53 -2.09,5 -3.25,7.45 a 64.44,64.44 0 0 1 -8.58,13.79 27.21,27.21 0 0 1 -6.13,5.45 14.16,14.16 0 0 1 -7.79,2.28 z"
           id="path568" />
        <path
           d="m 166.32,170.76 a 25.78,25.78 0 0 1 2,5.6 31.66,31.66 0 0 1 0.91,5.89 24.19,24.19 0 0 1 -0.31,6 13.05,13.05 0 0 1 -2.27,5.55 29.05,29.05 0 0 0 0.71,-5.72 c 0.09,-1.9 0,-3.8 -0.12,-5.71 -0.24,-3.82 -0.7,-7.64 -0.92,-11.61 z"
           id="path570" />
        <path
           d="m 56.3,65.53 a 60.28,60.28 0 0 0 -7.11,-3.64 c -1.21,-0.54 -2.45,-1.08 -3.65,-1.55 a 8.84,8.84 0 0 0 -3.66,-0.5 21.39,21.39 0 0 0 -7.37,2 41.82,41.82 0 0 0 -6.79,3.82 l 0.35,-1.17 a 9.63,9.63 0 0 0 2.81,3.75 4.07,4.07 0 0 0 1.9,0.83 8.55,8.55 0 0 0 2.33,-0.28 33.31,33.31 0 0 0 4.89,-1.66 c 1.61,-0.66 3.2,-1.4 4.75,-2.18 v 0 a 0.66,0.66 0 0 1 0.89,0.3 0.64,0.64 0 0 1 0,0.54 8,8 0 0 0 0.39,6.34 9,9 0 0 0 2.11,2.64 15.15,15.15 0 0 0 2.87,2 11.17,11.17 0 0 1 -5.65,-4.21 8.3,8.3 0 0 1 -1.23,-3.56 8.9,8.9 0 0 1 0.3,-3.75 l 1,0.82 c -1.55,0.92 -3.12,1.75 -4.74,2.53 a 33.5,33.5 0 0 1 -5.07,2 9.61,9.61 0 0 1 -2.91,0.41 4.56,4.56 0 0 1 -0.85,-0.14 5.9,5.9 0 0 1 -0.75,-0.28 8.32,8.32 0 0 1 -1.33,-0.76 10,10 0 0 1 -2.07,-2.08 11.09,11.09 0 0 1 -1.44,-2.52 v 0 a 1,1 0 0 1 0.35,-1.17 40.29,40.29 0 0 1 7.21,-3.92 21.28,21.28 0 0 1 8.07,-1.83 9.78,9.78 0 0 1 4.18,0.85 c 1.24,0.6 2.41,1.21 3.59,1.88 a 45.62,45.62 0 0 1 6.63,4.49 z"
           id="path572" />
        <path
           d="m 24.12,74.62 a 12.24,12.24 0 0 0 0.32,2.5 10.79,10.79 0 0 0 0.82,2.4 6.57,6.57 0 0 0 3.39,3.34 0.85,0.85 0 0 1 0.52,0.62 v 0 a 10.6,10.6 0 0 0 3,5.71 6.07,6.07 0 0 0 2.83,1.45 11.38,11.38 0 0 0 3.36,0.06 23.91,23.91 0 0 0 6.86,-1.25 6.69,6.69 0 0 0 2.76,-2 8.59,8.59 0 0 0 1.5,-3.17 8.71,8.71 0 0 1 -1.28,3.33 7.18,7.18 0 0 1 -2.76,2.33 24,24 0 0 1 -7,1.83 10.48,10.48 0 0 1 -3.72,0.11 7.45,7.45 0 0 1 -3.49,-1.6 10,10 0 0 1 -2.41,-3 13.42,13.42 0 0 1 -1.37,-3.54 l 0.52,0.63 A 7.71,7.71 0 0 1 25.36,82.74 9.15,9.15 0 0 1 23.54,80.3 12.81,12.81 0 0 1 22.49,77.52 14.56,14.56 0 0 1 22.04,74.58 Z"
           id="path574" />
        <path
           d="m 27.75,82.42 a 38.43,38.43 0 0 0 4.05,0.19 c 1.37,0 2.73,-0.08 4.1,-0.22 a 32.76,32.76 0 0 0 4.1,-0.68 26.25,26.25 0 0 0 3.95,-1.25 27.15,27.15 0 0 1 -3.8,1.73 33,33 0 0 1 -4,1.18 c -1.37,0.31 -2.76,0.56 -4.16,0.74 a 39.71,39.71 0 0 1 -4.27,0.31 z"
           id="path576" />
        <path
           d="m 56.84,78.65 a 9.7,9.7 0 0 1 -11.45,11.46 19.93,19.93 0 0 0 4.08,-1.6 14.22,14.22 0 0 0 3.31,-2.51 14.38,14.38 0 0 0 2.47,-3.3 19.12,19.12 0 0 0 1.59,-4.05 z"
           id="path578" />
      </g>
    </g>
    <g
       id="line_work-6"
       data-name="line work"
       transform="matrix(1.044769,-0.02269455,-0.00998529,1.0292251,98.807119,-42.148158)">
      <path
         class="cls-2"
         d="m 90.28,141.18 c 2.38,-3.84 1.82,-7.88 3.46,-10.43 2.7,-2.39 7.28,-5.11 12.54,-2.72 l -2,-3.5 10.19,-0.88 a 6.76,6.76 0 0 1 2.74,-7.12 2.2,2.2 0 0 0 0.81,-1.12 105.65,105.65 0 0 0 17.3,-16.31 C 153.56,77.94 140.25,41.9 98.83,34 88.13,32 79.54,32.65 72.68,34.8 A 11.77,11.77 0 0 0 68,33.68 c -4.05,0 -7.45,4.8 -8,9.2 A 33.47,33.47 0 0 0 46,62.83 c 0,0 -26.3,-3.62 -23.23,15.34 5.22,32.2 36.06,26.08 36.06,26.08 6.57,5.59 2.52,27.18 2.52,27.18 l 7.89,-2.25 c 10.85,1.48 7.73,6.25 4.44,18.58 0,0 12.87,-0.56 16.6,-6.58 z"
         id="path1268" />
      <path
         class="cls-3"
         d="m 122.35,88.31 c 0,0 20.21,-29.49 -16.62,-53.15 0,0 32.55,5.75 37.48,40.6 0,0 1.66,15.12 -9.85,23.18 0,0 -3.78,-10.3 -11.01,-10.63 z"
         id="path1270" />
      <path
         class="cls-3"
         d="m 62.66,115.85 c 0,0 1.32,9.54 -1.8,15.78 0,0 16.43,-3.12 26.3,-8 0,-0.05 -14.96,-2.02 -24.5,-7.78 z"
         id="path1272" />
      <path
         class="cls-4"
         d="m 64.86,39.78 c 0,0 13.83,6.52 1,18.57 0,0 -7.47,6.49 -19.25,3.85 -0.01,0 0.61,-11.28 18.25,-22.42 z"
         id="path1274" />
      <path
         class="cls-3"
         d="m 62.33,105.9 c 0,0 25.54,-5.26 23.13,1.31 -2.41,6.57 -17.65,3.18 -17.65,3.18 0,0 3.29,-5.26 -5.48,-4.49 z"
         id="path1276" />
      <path
         class="cls-4"
         d="m 77.34,61.17 a 18.07,18.07 0 0 0 -7,10.14 C 69.16,76.19 69.86,82.83 80.5,86 c 17.92,5.26 39.13,0.61 35.1,-6 -3.87,-6.33 -1.9,-9.45 -1.48,-11.75 0.42,-2.3 2.79,-14 -22.69,-12.09 a 26.67,26.67 0 0 0 -14.09,5.01 z"
         id="path1278" />
      <path
         class="cls-3"
         d="m 21.05,69.44 a 28.27,28.27 0 0 0 -6,4.61 A 34.49,34.49 0 0 0 10.3,80 35.38,35.38 0 0 0 6.88,86.82 36.15,36.15 0 0 0 5.69,90.47 c -0.34,1.23 -0.55,2.5 -0.83,3.75 0.24,-1.26 0.41,-2.53 0.71,-3.78 0.3,-1.25 0.61,-2.5 1.07,-3.7 a 36.41,36.41 0 0 1 3.24,-7 34.58,34.58 0 0 1 4.68,-6.17 29.21,29.21 0 0 1 6,-5 0.5,0.5 0 1 1 0.52,0.85 v 0 z"
         id="path1280" />
      <path
         class="cls-3"
         d="M 20.87,69.49 A 20.43,20.43 0 0 0 14.69,71.65 34.83,34.83 0 0 0 9.13,75.34 45.29,45.29 0 0 0 4.25,80 C 3.49,80.82 2.78,81.7 2.04,82.55 L 0,85.19 2,82.43 c 0.7,-0.88 1.38,-1.78 2.11,-2.64 a 46.07,46.07 0 0 1 4.7,-4.79 35,35 0 0 1 5.52,-4 20.94,20.94 0 0 1 6.44,-2.49 0.5,0.5 0 0 1 0.58,0.4 0.51,0.51 0 0 1 -0.41,0.58 z"
         id="path1282" />
      <path
         d="m 140.32,55.89 a 51.34,51.34 0 0 1 3.22,9.65 41.31,41.31 0 0 1 1.09,10.18 31.82,31.82 0 0 1 -0.56,5.14 26,26 0 0 1 -1.58,5 22.53,22.53 0 0 1 -2.7,4.52 24,24 0 0 1 -3.71,3.77 l -1.22,-1.59 a 21.82,21.82 0 0 0 3.57,-3.29 20.13,20.13 0 0 0 2.7,-4 24.18,24.18 0 0 0 1.72,-4.62 29.91,29.91 0 0 0 0.79,-4.91 41.23,41.23 0 0 0 -0.59,-10 51,51 0 0 0 -2.73,-9.85 z"
         id="path1284" />
      <path
         d="m 132,45 a 37.11,37.11 0 0 1 5.15,8.86 36.6,36.6 0 0 1 2.64,10 31.73,31.73 0 0 1 0.05,5.25 23.21,23.21 0 0 1 -1.1,5.14 19.34,19.34 0 0 1 -2.37,4.75 19,19 0 0 1 -3.47,3.8 29.49,29.49 0 0 0 2.63,-4.3 24.15,24.15 0 0 0 1.69,-4.62 28.22,28.22 0 0 0 0.55,-9.74 48.78,48.78 0 0 0 -2.11,-9.69 A 84,84 0 0 0 132,45 Z"
         id="path1286" />
      <path
         d="m 125.92,32.68 a 37,37 0 0 1 5.15,8.87 36.06,36.06 0 0 1 2.64,10 30.56,30.56 0 0 1 0.06,5.24 23.75,23.75 0 0 1 -1.1,5.15 20.09,20.09 0 0 1 -2.34,4.68 19,19 0 0 1 -3.48,3.79 28.55,28.55 0 0 0 2.63,-4.29 23,23 0 0 0 1.69,-4.63 28,28 0 0 0 0.55,-9.74 48.23,48.23 0 0 0 -2.11,-9.69 83.55,83.55 0 0 0 -3.69,-9.38 z"
         id="path1288" />
      <path
         d="m 114.92,21.71 a 37.09,37.09 0 0 1 7.42,7.07 36.67,36.67 0 0 1 5.34,8.88 31.32,31.32 0 0 1 1.51,5 23.06,23.06 0 0 1 0.39,5.24 19.51,19.51 0 0 1 -0.94,5.15 19.27,19.27 0 0 1 -2.27,4.62 30,30 0 0 0 1.32,-4.86 23.27,23.27 0 0 0 0.33,-4.92 27.94,27.94 0 0 0 -2.2,-9.5 47.78,47.78 0 0 0 -4.73,-8.71 83.63,83.63 0 0 0 -6.17,-7.97 z"
         id="path1290" />
      <path
         d="m 114.56,37.39 a 36.89,36.89 0 0 1 -3.62,-9.59 36,36 0 0 1 -1,-10.32 30.34,30.34 0 0 1 0.81,-5.18 23.15,23.15 0 0 1 1.93,-4.89 19.47,19.47 0 0 1 3.07,-4.23 19.06,19.06 0 0 1 4.1,-3.18 30.15,30.15 0 0 0 -3.3,3.8 23.06,23.06 0 0 0 -2.43,4.29 28.25,28.25 0 0 0 -2.12,9.52 49.14,49.14 0 0 0 0.49,9.9 84,84 0 0 0 2.07,9.88 z"
         id="path1292" />
      <path
         d="m 118.25,40.85 a 37.1,37.1 0 0 1 -7.51,-7 36.31,36.31 0 0 1 -5.45,-8.82 31.59,31.59 0 0 1 -1.58,-5 24.31,24.31 0 0 1 -0.45,-5.24 19.92,19.92 0 0 1 0.88,-5.16 18.89,18.89 0 0 1 2.22,-4.63 29.35,29.35 0 0 0 -1.27,4.87 23.9,23.9 0 0 0 -0.27,4.92 28.18,28.18 0 0 0 2.32,9.48 48.17,48.17 0 0 0 4.86,8.66 82.19,82.19 0 0 0 6.25,7.92 z"
         id="path1294" />
      <path
         d="m 63.65,115.67 a 38.13,38.13 0 0 1 0.22,4.24 32.85,32.85 0 0 1 -0.23,4.2 23,23 0 0 1 -0.83,4.11 13.3,13.3 0 0 1 -1.81,3.78 13.35,13.35 0 0 0 1.31,-3.86 23,23 0 0 0 0.32,-4 34.15,34.15 0 0 0 -0.27,-4 36,36 0 0 0 -0.7,-4 v 0 a 1.0272415,1.0272415 0 1 1 2,-0.47 0.5,0.5 0 0 0 -0.01,0 z"
         id="path1296" />
      <path
         d="m 63.09,130.45 a 16.15,16.15 0 0 1 2,-3.53 15.83,15.83 0 0 1 2.77,-3 11.65,11.65 0 0 1 3.6,-2 7.71,7.71 0 0 1 4.08,-0.38 26.79,26.79 0 0 0 -3.42,1.79 30,30 0 0 0 -3,2.17 c -1,0.78 -1.91,1.61 -2.88,2.46 a 27.83,27.83 0 0 1 -3.15,2.49 z"
         id="path1298" />
      <path
         d="m 74.83,144.62 a 32.82,32.82 0 0 0 1.31,-9.52 6.49,6.49 0 0 0 -1.37,-4 4.81,4.81 0 0 0 -3.77,-1.29 14.71,14.71 0 0 0 -2.26,0.24 l -0.64,0.11 h -0.4 a 2.25,2.25 0 0 1 -0.26,0 1.33,1.33 0 0 1 -0.52,-0.12 1.56,1.56 0 0 1 -0.25,-0.17 1.1,1.1 0 0 1 -0.31,-0.45 1.19,1.19 0 0 1 0,-0.5 0.85,0.85 0 0 1 0.08,-0.28 1.35,1.35 0 0 1 0.3,-0.42 2.7,2.7 0 0 1 0.36,-0.3 5.75,5.75 0 0 1 0.6,-0.37 32.2,32.2 0 0 1 4.63,-2 39.43,39.43 0 0 1 4.78,-1.35 15.1,15.1 0 0 1 5,-0.37 23.16,23.16 0 0 0 -4.66,1.38 q -2.27,0.87 -4.47,1.87 a 46,46 0 0 0 -4.27,2.14 4,4 0 0 0 -0.43,0.28 l -0.11,0.09 a 0.81,0.81 0 0 0 0.11,-0.18 0.93,0.93 0 0 0 0.06,-0.21 0.86,0.86 0 0 0 -0.05,-0.42 0.84,0.84 0 0 0 -0.25,-0.38 0.59,0.59 0 0 0 -0.19,-0.13 1.11,1.11 0 0 0 -0.22,-0.07 v 0 h 0.22 l 0.56,-0.11 a 12.59,12.59 0 0 1 2.62,-0.26 8.16,8.16 0 0 1 2.73,0.41 5.36,5.36 0 0 1 2.4,1.65 7.56,7.56 0 0 1 1.48,5.17 19.13,19.13 0 0 1 -0.89,5 25.8,25.8 0 0 1 -1.92,4.56 z"
         id="path1300" />
      <path
         d="m 58.76,106.87 a 86.16,86.16 0 0 1 12.17,-3.11 61.77,61.77 0 0 1 6.27,-0.84 23.21,23.21 0 0 1 6.52,0.24 6.15,6.15 0 0 1 1.73,0.68 2.83,2.83 0 0 1 1.37,1.86 3.44,3.44 0 0 1 -0.36,2.11 4.75,4.75 0 0 1 -1.14,1.54 8,8 0 0 1 -3.13,1.59 15.89,15.89 0 0 1 -3.24,0.54 39.91,39.91 0 0 1 -12.54,-1.36 64.54,64.54 0 0 0 12.37,-0.19 18,18 0 0 0 2.9,-0.66 6.15,6.15 0 0 0 2.32,-1.27 3,3 0 0 0 0.68,-1 1.55,1.55 0 0 0 0.19,-0.92 c 0,-0.19 -0.17,-0.35 -0.47,-0.54 a 4.28,4.28 0 0 0 -1.18,-0.43 23.21,23.21 0 0 0 -5.94,-0.3 c -2,0.08 -4.1,0.3 -6.16,0.5 -4.12,0.45 -8.21,1.03 -12.36,1.56 z"
         id="path1302" />
      <path
         d="m 93.91,91 a 14,14 0 0 1 3.17,0.69 13.09,13.09 0 0 1 3,1.38 9.76,9.76 0 0 1 2.59,2.27 7.26,7.26 0 0 1 1.41,3.32 1,1 0 0 1 -0.81,1.08 0.88,0.88 0 0 1 -0.43,0 v 0 c -0.92,-0.31 -1.86,-0.6 -2.78,-0.93 l 1.21,-1.4 a 15.8,15.8 0 0 1 1.22,3.71 14,14 0 0 1 0.25,3.87 10.28,10.28 0 0 1 -1,3.74 8.9,8.9 0 0 1 -2.33,3 12.39,12.39 0 0 0 1.44,-3.29 11.42,11.42 0 0 0 0.36,-3.44 17.16,17.16 0 0 0 -0.53,-3.41 18,18 0 0 0 -1.18,-3.21 1,1 0 0 1 0.44,-1.34 1,1 0 0 1 0.77,-0.06 c 0.93,0.31 1.84,0.65 2.76,1 l -1.27,1 a 6.55,6.55 0 0 0 -0.92,-2.54 10,10 0 0 0 -2,-2.14 A 16.94,16.94 0 0 0 96.75,92.55 28.82,28.82 0 0 0 93.91,91 Z"
         id="path1304" />
      <g
         class="cls-5"
         clip-path="url(#clip-path)"
         id="g1316">
        <path
           class="cls-6"
           d="m 68.07,61.55 c 0,0 -3.74,7 -12.79,4.46 -9.05,-2.54 -7.13,-7.28 -7.13,-7.28 0,0 3.18,-10.62 13.65,-7.73 0,0 7,1.21 6.27,10.55 z"
           id="path1306" />
        <path
           d="m 48.38,58.14 c -1.69,3.48 1,5.69 5.11,6.68 4.11,0.99 8.18,0.35 9.87,-3.12 1.69,-3.47 -0.29,-7.08 -4.43,-8.06 -4.14,-0.98 -8.86,1.03 -10.55,4.5 z"
           id="path1308" />
        <ellipse
           class="cls-7"
           cx="53.970001"
           cy="56.110001"
           rx="1.91"
           ry="0.92000002"
           transform="matrix(0.99,-0.16,0.16,0.99,-8.16,9.19)"
           id="ellipse1310" />
        <path
           d="m 48.15,58.73 a 11.86,11.86 0 0 1 1.59,-4.18 10.91,10.91 0 0 1 3.17,-3.36 9.21,9.21 0 0 1 4.47,-1.59 11.83,11.83 0 0 1 2.38,0 21.74,21.74 0 0 1 2.3,0.45 L 62,50 a 7.91,7.91 0 0 1 3.38,1.71 8.43,8.43 0 0 1 2.24,2.91 9.7,9.7 0 0 1 0.81,3.47 14.23,14.23 0 0 1 0,1.73 c -0.07,0.57 -0.18,1.14 -0.29,1.69 C 68.07,60.94 68,60.39 67.95,59.84 67.9,59.29 67.76,58.74 67.61,58.22 A 11.3,11.3 0 0 0 66.4,55.3 8.13,8.13 0 0 0 64.33,53.12 7.45,7.45 0 0 0 61.63,52 h -0.09 a 13.59,13.59 0 0 0 -4,-0.41 11.53,11.53 0 0 0 -1.94,0.31 9.46,9.46 0 0 0 -1.83,0.77 11.72,11.72 0 0 0 -3.18,2.56 19.1,19.1 0 0 0 -2.44,3.5 z"
           id="path1312" />
        <path
           d="m 68.07,61.55 a 9.26,9.26 0 0 1 -4.53,4.89 11.28,11.28 0 0 1 -6.84,0.91 15.66,15.66 0 0 1 -6.3,-2.57 6.68,6.68 0 0 1 -2.28,-2.68 3.83,3.83 0 0 1 0,-3.37 4,4 0 0 0 0.88,2.89 6.77,6.77 0 0 0 2.28,1.85 c 0.42,0.25 0.91,0.42 1.36,0.64 0.45,0.22 1,0.35 1.45,0.52 l 1.49,0.44 1.48,0.31 A 12.19,12.19 0 0 0 62.94,65 12.64,12.64 0 0 0 68.07,61.55 Z"
           id="path1314" />
      </g>
      <path
         class="cls-6"
         d="m 107,78.18 c 0,0 -4.76,10.31 -17.95,5.82 C 75.86,79.51 78.16,72.4 78.16,72.4 c 0,0 3.59,-15.92 18.84,-10.73 0,0 10.15,2.33 10,16.51 z"
         id="path1318" />
      <path
         d="m 78.54,71.91 c -2.1,5.78 2,9.74 8.22,11.7 C 92.98,85.57 98.8,84.8 100.9,79 103,73.2 99.69,67 93.52,65 87.35,63 80.64,66.14 78.54,71.91 Z"
         id="path1320" />
      <ellipse
         class="cls-7"
         cx="85.120003"
         cy="69.650002"
         rx="3.1700001"
         ry="1.8200001"
         transform="rotate(-6.11,85.160912,69.653633)"
         id="ellipse1322" />
      <path
         d="m 78.16,72.4 a 17.22,17.22 0 0 1 2.06,-6 14,14 0 0 1 4.35,-4.8 12.27,12.27 0 0 1 6.31,-2 18.11,18.11 0 0 1 6.44,1.06 h -0.09 a 12.45,12.45 0 0 1 4.87,2.75 14.27,14.27 0 0 1 3.32,4.33 15.48,15.48 0 0 1 1,2.53 16.62,16.62 0 0 1 0.56,2.61 c 0.13,0.87 0.13,1.76 0.18,2.63 0.05,0.87 -0.1,1.75 -0.17,2.62 l -0.34,-2.57 c -0.21,-0.84 -0.31,-1.69 -0.56,-2.5 a 19.79,19.79 0 0 0 -1.93,-4.61 15.15,15.15 0 0 0 -3.19,-3.66 14,14 0 0 0 -2,-1.33 10.94,10.94 0 0 0 -2.14,-0.89 h -0.09 a 18.27,18.27 0 0 0 -5.76,-1 11.27,11.27 0 0 0 -5.5,1.45 14,14 0 0 0 -4.34,4 22.37,22.37 0 0 0 -2.98,5.38 z"
         id="path1324" />
      <path
         d="m 107.05,78.22 a 13.21,13.21 0 0 1 -6.9,6.56 15.91,15.91 0 0 1 -9.72,0.45 22.71,22.71 0 0 1 -9,-3.94 11.05,11.05 0 0 1 -3.16,-4 6.2,6.2 0 0 1 -0.23,-4.95 l 0.2,0.06 a 6.78,6.78 0 0 0 1.27,4.22 12,12 0 0 0 3.13,3 20.27,20.27 0 0 0 1.9,1.19 c 0.64,0.4 1.33,0.73 2,1.07 a 25.76,25.76 0 0 0 4.27,1.72 14.63,14.63 0 0 0 9,0.16 12.57,12.57 0 0 0 7,-5.71 z"
         id="path1326" />
      <path
         d="m 89.94,141.87 a 29.36,29.36 0 0 1 1.15,-6.74 13.25,13.25 0 0 1 3.55,-5.92 9.21,9.21 0 0 1 6.63,-2.24 16.33,16.33 0 0 1 6.8,1.91 l -0.84,1 c -0.83,-0.76 -1.68,-1.52 -2.48,-2.31 -0.8,-0.79 -1.62,-1.58 -2.4,-2.4 v 0 a 1,1 0 0 1 0,-1.36 l 0.11,-0.09 a 7.8,7.8 0 0 1 3.32,-1.2 20.64,20.64 0 0 1 3.22,-0.25 44.4,44.4 0 0 1 6.31,0.43 l -0.55,1.83 a 9,9 0 0 1 -3.73,-3.51 15.15,15.15 0 0 1 -1.79,-4.56 23.88,23.88 0 0 1 -0.57,-4.74 26.43,26.43 0 0 1 0.33,-4.72 44.32,44.32 0 0 0 0.55,4.63 33.24,33.24 0 0 0 1.1,4.45 15.38,15.38 0 0 0 1.9,4 7.81,7.81 0 0 0 3.1,2.71 1,1 0 0 1 -0.54,1.83 v 0 a 43.1,43.1 0 0 0 -6,-0.36 23.48,23.48 0 0 0 -2.93,0.23 6.15,6.15 0 0 0 -2.47,0.82 l 0.14,-1.46 c 0.77,0.82 1.52,1.66 2.26,2.52 0.74,0.86 1.45,1.73 2.17,2.6 v 0 a 0.68,0.68 0 0 1 -0.86,1 15.22,15.22 0 0 0 -6.17,-2 8.47,8.47 0 0 0 -6.06,1.74 12.53,12.53 0 0 0 -3.65,5.47 32,32 0 0 0 -1.6,6.69 z"
         id="path1328" />
      <path
         d="m 24.45,80.2 a 39.38,39.38 0 0 0 4.84,12.6 24.11,24.11 0 0 0 9.83,9 29,29 0 0 0 13.29,2.7 43,43 0 0 0 13.59,-2.44 43.17,43.17 0 0 1 -13.53,3 29.77,29.77 0 0 1 -13.73,-2.29 25.38,25.38 0 0 1 -10.74,-9.15 41.1,41.1 0 0 1 -5.54,-13 1.0004624,1.0004624 0 1 1 1.94,-0.49 z"
         id="path1330" />
      <ellipse
         class="cls-2"
         cx="129.58"
         cy="104.92"
         rx="19.690001"
         ry="18.76"
         transform="rotate(-86.8,129.57426,104.92484)"
         id="ellipse1332" />
      <path
         d="m 144.94,112.7 c -5.65,17.52 -31.48,14.62 -32.53,-3.84 0,0 5.33,-2.54 10,0.07 0,0 -0.14,-4.66 -2.57,-7.2 a 10.46,10.46 0 0 1 6.82,1 c 0,0 0.73,-4 -5.91,-6.95 a 20.09,20.09 0 0 1 14.38,0 c 12.37,4.52 9.81,16.92 9.81,16.92 z"
         id="path1334" />
      <path
         d="m 112.51,108.84 a 22.35,22.35 0 0 0 5,9.25 19.53,19.53 0 0 0 4,3.28 20.89,20.89 0 0 0 4.72,2 16.84,16.84 0 0 0 5.16,0.58 15.38,15.38 0 0 0 5.14,-1.18 15.81,15.81 0 0 0 4.41,-3 17.54,17.54 0 0 0 3.2,-4.22 21.71,21.71 0 0 0 1.89,-4.89 23.66,23.66 0 0 0 0.65,-5.15 20.9,20.9 0 0 0 -2.56,-9.9 18,18 0 0 0 -7.12,-7.2 17,17 0 0 0 -4.88,-1.8 19.66,19.66 0 0 0 -5.32,-0.21 v -0.2 a 16.56,16.56 0 0 1 5.49,-0.6 17.38,17.38 0 0 1 5.46,1.4 18.21,18.21 0 0 1 8.25,7.62 20.74,20.74 0 0 1 -0.92,21.56 21.48,21.48 0 0 1 -8.27,7.19 c -0.41,0.21 -0.85,0.36 -1.27,0.55 l -0.65,0.26 -0.66,0.21 c -0.45,0.13 -0.88,0.3 -1.34,0.4 l -1.37,0.28 a 17.86,17.86 0 0 1 -5.65,-0.06 16.75,16.75 0 0 1 -5.28,-2.13 18.34,18.34 0 0 1 -4.23,-3.77 18,18 0 0 1 -2.82,-4.85 c -0.15,-0.44 -0.31,-0.87 -0.46,-1.31 -0.15,-0.44 -0.22,-0.91 -0.33,-1.35 a 18,18 0 0 1 -0.4,-2.73 z"
         id="path1336" />
      <path
         d="m 64.86,39.78 c -4,2.91 -8.18,5.83 -11.34,9.64 a 24.29,24.29 0 0 0 -5.7,13.17 l -2,-0.29 a 26.86,26.86 0 0 1 2.49,-7.3 26.1,26.1 0 0 1 4.47,-6.22 c 3.52,-3.73 7.85,-6.36 12.08,-9 z"
         id="path1338" />
      <path
         d="m 58.6,43.23 a 11.86,11.86 0 0 1 0.77,-4.1 13.09,13.09 0 0 1 2,-3.53 10.34,10.34 0 0 1 1.4,-1.5 6.48,6.48 0 0 1 1.82,-1.1 7.67,7.67 0 0 1 4.07,-0.28 13.53,13.53 0 0 1 3.71,1.28 14.6,14.6 0 0 1 3.22,2.18 A 10.51,10.51 0 0 1 79,43 10.21,10.21 0 0 0 75.24,36.66 13.58,13.58 0 0 0 72,34.73 a 12.42,12.42 0 0 0 -3.53,-1 6.29,6.29 0 0 0 -3.43,0.45 6.19,6.19 0 0 0 -2.49,2.31 11.92,11.92 0 0 0 -1.55,3.2 10.2,10.2 0 0 0 -0.45,3.39 z"
         id="path1340" />
      <path
         d="M 73.69,35.17 A 44.06,44.06 0 0 1 99.44,33 a 33.88,33.88 0 0 1 12,5.36 31.82,31.82 0 0 1 8.81,9.58 44,44 0 0 0 -9.68,-8.28 A 38.75,38.75 0 0 0 99,35 50.39,50.39 0 0 0 86.43,33.76 68.06,68.06 0 0 0 73.69,35.17 Z"
         id="path1342" />
      <path
         d="M 88,50.16 A 48.87,48.87 0 0 1 98.43,49 42,42 0 0 1 109,50.06 a 25.08,25.08 0 0 1 5.08,1.88 14.23,14.23 0 0 1 4.35,3.38 9.8,9.8 0 0 1 2.26,5 12.87,12.87 0 0 1 -0.47,5.29 16.09,16.09 0 0 0 -0.49,-5.08 9.5,9.5 0 0 0 -2.46,-4.17 14,14 0 0 0 -4,-2.72 A 24.72,24.72 0 0 0 108.5,52 59.39,59.39 0 0 0 98.39,50.51 C 95,50.27 91.49,50.18 88,50.16 Z"
         id="path1344" />
      <polyline
         class="cls-8"
         points="26.5 66.55 12.03 58.01 18.94 45.18 45.24 59.33 43.27 61.95"
         id="polyline1346"
         style="fill:url(#linearGradient1376)" />
      <path
         d="M 26.5,66.55 C 24,65.33 21.49,64 19,62.71 c -2.49,-1.29 -4.93,-2.66 -7.38,-4 L 11,58.33 l 0.34,-0.7 c 1.08,-2.18 2.22,-4.32 3.33,-6.48 1.11,-2.16 2.27,-4.29 3.4,-6.44 l 0.47,-0.87 0.88,0.47 q 6.58,3.52 13.07,7.21 c 2.15,1.25 4.32,2.48 6.51,3.74 2.19,1.26 4.28,2.55 6.4,3.87 l 0.24,0.15 -0.17,0.19 c -0.7,0.84 -1.43,1.66 -2.15,2.48 0.59,-0.92 1.18,-1.85 1.78,-2.76 l 0.08,0.35 c -2.27,-1 -4.52,-2.12 -6.75,-3.21 C 36.2,55.24 33.92,54.11 31.69,53 Q 25,49.6 18.47,46.06 l 1.34,-0.41 c -1.17,2.13 -2.31,4.27 -3.5,6.39 -1.19,2.12 -2.31,4.24 -3.58,6.34 l -0.29,-1.06 q 3.56,2.24 7.08,4.53 c 2.34,1.54 4.69,3.08 6.98,4.7 z"
         id="path1348" />
      <polyline
         class="cls-9"
         points="79.43 94.5 53.13 80.01 60.38 66.55 87.98 81.4 79.43 94.5"
         id="polyline1350"
         style="fill:url(#linear-gradient-2)" />
      <path
         d="M 79.43,94.5 C 74.93,92.29 70.5,90 66,87.69 c -4.5,-2.31 -8.88,-4.63 -13.29,-7 l -0.68,-0.36 0.36,-0.72 c 1.14,-2.28 2.33,-4.53 3.49,-6.79 l 3.58,-6.76 0.46,-0.87 0.89,0.47 q 6.9,3.7 13.73,7.56 c 2.26,1.3 4.54,2.58 6.78,3.92 2.24,1.34 4.49,2.69 6.72,4 l 0.22,0.12 -0.13,0.2 -8.74,13 8.36,-13.22 0.08,0.32 c -2.36,-1.12 -4.74,-2.21 -7.08,-3.38 -2.34,-1.17 -4.67,-2.33 -7,-3.5 q -7,-3.57 -13.88,-7.29 L 61.25,67 57.58,73.71 c -1.25,2.22 -2.47,4.45 -3.75,6.66 l -0.32,-1.08 q 6.52,3.72 13,7.5 c 4.31,2.59 8.65,5.09 12.92,7.71 z"
         id="path1352" />
      <path
         d="m 56.09,73.79 a 18.69,18.69 0 0 0 -5,-7.35 c -0.26,-0.25 -0.57,-0.46 -0.85,-0.69 a 7.07,7.07 0 0 0 -0.88,-0.64 c -0.31,-0.2 -0.6,-0.43 -0.92,-0.61 -0.32,-0.18 -0.65,-0.35 -1,-0.55 a 8,8 0 0 0 -1,-0.51 l -1,-0.51 c -0.71,-0.32 -1.44,-0.59 -2.16,-1 a 17.79,17.79 0 0 1 2.42,0 14.22,14.22 0 0 1 2.39,0.54 12.18,12.18 0 0 1 4.33,2.41 11.27,11.27 0 0 1 2.93,4 9.09,9.09 0 0 1 0.74,4.91 z"
         id="path1354" />
      <path
         d="m 22.64,74.71 a 22.56,22.56 0 0 1 -0.31,-4 9.18,9.18 0 0 1 0.9,-4.11 6,6 0 0 1 1.37,-1.75 7.48,7.48 0 0 1 1.82,-1.16 14.45,14.45 0 0 1 3.93,-1 55.82,55.82 0 0 1 7.74,-0.22 l 7.65,0.26 a 73.58,73.58 0 0 0 7.57,0 27,27 0 0 0 7.35,-1.48 A 17.35,17.35 0 0 0 67,57.41 13.18,13.18 0 0 0 70.64,51 v 0 0 a 9,9 0 0 0 -1.16,-7.33 12,12 0 0 0 -6.26,-4.32 12.05,12.05 0 0 1 6.41,4.21 8.66,8.66 0 0 1 1.5,3.61 9.7,9.7 0 0 1 -0.13,3.9 v 0 a 13.62,13.62 0 0 1 -3.62,6.77 17.85,17.85 0 0 1 -6.45,4.24 28.47,28.47 0 0 1 -7.54,1.73 70.73,70.73 0 0 1 -7.69,0.17 l -7.63,-0.05 a 54.81,54.81 0 0 0 -7.51,0.41 12.65,12.65 0 0 0 -3.44,1 4.76,4.76 0 0 0 -2.3,2.19 7.4,7.4 0 0 0 -0.61,3.3 21.42,21.42 0 0 0 0.39,3.62 v 0 a 1.015197,1.015197 0 1 1 -2,0.35 z"
         id="path1356" />
      <path
         class="cls-3"
         d="m 39.77,88.86 a 41.46,41.46 0 0 1 2.23,10.78 48.91,48.91 0 0 1 -0.27,11 50.06,50.06 0 0 1 -2.6,10.6 53,53 0 0 1 -2.08,5 c -0.77,1.65 -1.71,3.21 -2.56,4.82 0.81,-1.63 1.72,-3.21 2.44,-4.87 a 52.25,52.25 0 0 0 2,-5.08 50.54,50.54 0 0 0 2.34,-10.58 48.33,48.33 0 0 0 0,-10.82 40.26,40.26 0 0 0 -2.44,-10.46 v 0 a 0.5004498,0.5004498 0 1 1 0.93,-0.37 z"
         id="path1358" />
      <path
         class="cls-3"
         d="m 39.66,88.7 a 22.56,22.56 0 0 1 2.81,4 36.36,36.36 0 0 1 2.08,4.37 49.84,49.84 0 0 1 2.62,9.26 l 0.4,2.37 0.27,2.39 c 0.22,1.59 0.22,3.19 0.32,4.79 0.1,1.6 0,3.19 0,4.79 l -0.28,4.78 0.16,-4.78 c 0,-1.6 0,-3.19 -0.14,-4.78 -0.14,-1.59 -0.18,-3.19 -0.45,-4.76 l -0.32,-2.36 -0.46,-2.34 A 48.18,48.18 0 0 0 43.85,97.36 37.19,37.19 0 0 0 41.7,93.14 21.69,21.69 0 0 0 39,89.41 v 0 a 0.5,0.5 0 0 1 0,-0.71 0.49,0.49 0 0 1 0.7,0 z"
         id="path1360" />
      <path
         d="m 29.45,62.38 c 4.59,0.35 10.73,2.23 14.29,9.15 C 46,76 43.59,82.36 38.62,84.64 34.86,86.37 29.91,86.85 24.38,82.82 18.85,78.79 18.64,73.74 19.8,69.71 c 1.28,-4.45 5.53,-7.64 9.65,-7.33 z"
         id="path1362" />
      <path
         class="cls-10"
         d="m 22.39,69.88 a 5,5 0 0 1 2.11,-2.3 c -0.12,0.2 -0.24,0.4 -0.35,0.62 -0.89,1.79 -0.82,3.64 0.15,4.12 a 1.47,1.47 0 0 0 1.27,-0.07 c -0.9,1.41 -2.17,2.18 -3,1.75 -0.83,-0.43 -1.07,-2.33 -0.18,-4.12 z"
         id="path1364" />
      <path
         class="cls-10"
         d="M 32.63,75.29 A 6.19,6.19 0 0 1 34.48,73 c -0.92,2 -0.82,3.94 0.25,4.47 a 1.92,1.92 0 0 0 2,-0.38 c 0,0.06 0,0.12 -0.07,0.17 -1,2 -2.71,3.21 -3.81,2.66 -1.1,-0.55 -1.23,-2.61 -0.22,-4.63 z"
         id="path1366" />
    </g>
  </g>
</svg>